<svg xmlns="http://www.w3.org/2000/svg" xmlns:xlink="http://www.w3.org/1999/xlink" width="600" viewBox="0 0 375 374.999991" height="600" preserveAspectRatio="xMidYMid meet" version="1.0"><g fill="#ffde59" fill-opacity="1"><g transform="translate(161.092801, 232.499927)"><g><path d="M 20.289062 -19.925781 L 20.289062 -124.261719 L 46.554688 -124.261719 C 67.023438 -124.261719 82.417969 -118.464844 82.417969 -94.734375 C 82.417969 -70.464844 65.210938 -68.652344 48.003906 -59.59375 C 40.03125 -55.429688 32.96875 -50.175781 32.425781 -42.386719 C 38.039062 -56.335938 57.785156 -59.234375 71.914062 -63.035156 C 88.394531 -67.382812 102.34375 -74.449219 102.34375 -94.734375 C 102.34375 -116.472656 84.230469 -126.796875 64.304688 -126.796875 L 0 -126.796875 C 0 -126.796875 1.628906 -117.558594 1.628906 -106.871094 L 1.628906 -19.925781 C 1.628906 -9.238281 0 0 0 0 L 22.097656 0 C 22.097656 0 20.289062 -9.238281 20.289062 -19.925781 Z M 20.289062 -19.925781 "/></g></g></g><g clip-path="url(#id1)"><path fill="#000000" d="M 37.542969 187.5 L 326.957031 187.5 L 326.957031 212.25 L 37.542969 212.25 L 37.542969 187.5 " fill-opacity="1" fill-rule="nonzero"/></g><g fill="#ffde59" fill-opacity="1"><g transform="translate(161.89555, 207.183795)"><g><path d="M 11.3125 -3.34375 L 4.09375 -3.34375 L 2.65625 0 L -0.109375 0 L 6.40625 -14.453125 L 9.046875 -14.453125 L 15.5625 0 L 12.75 0 Z M 10.421875 -5.453125 L 7.703125 -11.765625 L 5 -5.453125 Z M 10.421875 -5.453125 "/></g></g></g><g fill="#ffde59" fill-opacity="1"><g transform="translate(177.352466, 207.183795)"><g><path d="M 11.3125 -3.34375 L 4.09375 -3.34375 L 2.65625 0 L -0.109375 0 L 6.40625 -14.453125 L 9.046875 -14.453125 L 15.5625 0 L 12.75 0 Z M 10.421875 -5.453125 L 7.703125 -11.765625 L 5 -5.453125 Z M 10.421875 -5.453125 "/></g></g></g><g fill="#ffde59" fill-opacity="1"><g transform="translate(192.809381, 207.183795)"><g><path d="M 11.390625 0 L 8.4375 -4.234375 C 8.3125 -4.210938 8.128906 -4.203125 7.890625 -4.203125 L 4.625 -4.203125 L 4.625 0 L 1.9375 0 L 1.9375 -14.453125 L 7.890625 -14.453125 C 9.140625 -14.453125 10.226562 -14.242188 11.15625 -13.828125 C 12.082031 -13.410156 12.789062 -12.816406 13.28125 -12.046875 C 13.78125 -11.273438 14.03125 -10.363281 14.03125 -9.3125 C 14.03125 -8.21875 13.765625 -7.28125 13.234375 -6.5 C 12.710938 -5.71875 11.953125 -5.132812 10.953125 -4.75 L 14.28125 0 Z M 11.328125 -9.3125 C 11.328125 -10.226562 11.023438 -10.929688 10.421875 -11.421875 C 9.816406 -11.921875 8.929688 -12.171875 7.765625 -12.171875 L 4.625 -12.171875 L 4.625 -6.421875 L 7.765625 -6.421875 C 8.929688 -6.421875 9.816406 -6.671875 10.421875 -7.171875 C 11.023438 -7.671875 11.328125 -8.382812 11.328125 -9.3125 Z M 11.328125 -9.3125 "/></g></g></g><g fill="#ffde59" fill-opacity="1"><g transform="translate(207.894833, 207.183795)"><g><path d="M 4.875 -12.171875 L 0.078125 -12.171875 L 0.078125 -14.453125 L 12.34375 -14.453125 L 12.34375 -12.171875 L 7.546875 -12.171875 L 7.546875 0 L 4.875 0 Z M 4.875 -12.171875 "/></g></g></g><g fill="#ffde59" fill-opacity="1"><g transform="translate(220.318149, 207.183795)"><g><path d="M 14.78125 -14.453125 L 14.78125 0 L 12.09375 0 L 12.09375 -6.1875 L 4.625 -6.1875 L 4.625 0 L 1.9375 0 L 1.9375 -14.453125 L 4.625 -14.453125 L 4.625 -8.484375 L 12.09375 -8.484375 L 12.09375 -14.453125 Z M 14.78125 -14.453125 "/></g></g></g></svg>