<svg xmlns="http://www.w3.org/2000/svg" xmlns:xlink="http://www.w3.org/1999/xlink" width="500" zoomAndPan="magnify" viewBox="0 0 375 374.999991" height="500" preserveAspectRatio="xMidYMid meet" version="1.0"><defs><g/><clipPath id="id1"><path d="M 138 3.953125 L 237 3.953125 L 237 155 L 138 155 Z M 138 3.953125 " clip-rule="nonzero"/></clipPath><clipPath id="id2"><path d="M 38.644531 131 L 336.394531 131 L 336.394531 313.703125 L 38.644531 313.703125 Z M 38.644531 131 " clip-rule="nonzero"/></clipPath></defs><g clip-path="url(#id1)"><path fill="#00b4d8" d="M 187.5 154.828125 L 236.503906 105.875 L 218.085938 67.558594 L 187.5 3.953125 L 138.515625 105.875 L 139.746094 107.101562 Z M 187.5 154.828125 " fill-opacity="1" fill-rule="nonzero"/></g><g clip-path="url(#id2)"><path fill="#03045e" d="M 248.734375 131.378906 L 187.5 192.554688 L 126.292969 131.386719 L 38.6875 313.703125 L 94.1875 313.703125 C 106.382812 290.039062 127.316406 271.621094 152.722656 262.652344 C 152.722656 262.660156 152.722656 262.660156 152.722656 262.660156 C 163.699219 258.773438 175.492188 256.667969 187.777344 256.667969 C 228.546875 256.667969 263.902344 279.824219 281.367188 313.703125 L 336.351562 313.703125 Z M 248.734375 131.378906 " fill-opacity="1" fill-rule="nonzero"/></g><g fill="#ffffff" fill-opacity="1"><g transform="translate(34.521678, 342.445818)"><g><path d="M 0.65625 -0.71875 C 0.738281 -0.882812 0.828125 -1.070312 0.921875 -1.28125 C 1.015625 -1.5 1.097656 -1.726562 1.171875 -1.96875 L 1.4375 -2.625 C 1.320312 -2.789062 1.203125 -2.976562 1.078125 -3.1875 C 0.960938 -3.394531 0.851562 -3.601562 0.75 -3.8125 C 0.65625 -4.03125 0.578125 -4.242188 0.515625 -4.453125 C 0.453125 -4.671875 0.421875 -4.882812 0.421875 -5.09375 C 0.421875 -5.101562 0.46875 -5.113281 0.5625 -5.125 C 0.664062 -5.132812 0.796875 -5.140625 0.953125 -5.140625 C 1.109375 -5.148438 1.273438 -5.15625 1.453125 -5.15625 C 1.628906 -5.164062 1.789062 -5.171875 1.9375 -5.171875 C 2.09375 -5.171875 2.222656 -5.171875 2.328125 -5.171875 C 2.429688 -5.179688 2.484375 -5.1875 2.484375 -5.1875 C 2.628906 -5.570312 2.773438 -5.941406 2.921875 -6.296875 C 3.066406 -6.648438 3.207031 -7.003906 3.34375 -7.359375 C 3.488281 -7.722656 3.632812 -8.09375 3.78125 -8.46875 C 3.925781 -8.84375 4.066406 -9.242188 4.203125 -9.671875 C 4.484375 -10.472656 4.753906 -11.179688 5.015625 -11.796875 C 5.273438 -12.410156 5.519531 -12.976562 5.75 -13.5 C 5.769531 -13.570312 5.8125 -13.632812 5.875 -13.6875 C 5.9375 -13.738281 6.003906 -13.785156 6.078125 -13.828125 C 6.148438 -13.867188 6.21875 -13.898438 6.28125 -13.921875 C 6.351562 -13.953125 6.410156 -13.972656 6.453125 -13.984375 C 6.472656 -13.992188 6.566406 -14.023438 6.734375 -14.078125 C 6.910156 -14.128906 7.109375 -14.179688 7.328125 -14.234375 C 7.554688 -14.296875 7.78125 -14.347656 8 -14.390625 C 8.21875 -14.441406 8.390625 -14.46875 8.515625 -14.46875 L 8.6875 -14.46875 C 8.789062 -14.46875 8.890625 -14.441406 8.984375 -14.390625 C 9.078125 -14.335938 9.144531 -14.242188 9.1875 -14.109375 C 9.5 -13.304688 9.832031 -12.429688 10.1875 -11.484375 C 10.539062 -10.535156 10.882812 -9.488281 11.21875 -8.34375 C 11.40625 -7.738281 11.582031 -7.160156 11.75 -6.609375 C 11.925781 -6.066406 12.101562 -5.535156 12.28125 -5.015625 C 12.457031 -4.492188 12.632812 -3.972656 12.8125 -3.453125 C 13 -2.929688 13.1875 -2.394531 13.375 -1.84375 C 13.425781 -1.601562 13.484375 -1.414062 13.546875 -1.28125 C 13.609375 -1.144531 13.664062 -1.035156 13.71875 -0.953125 C 13.769531 -0.878906 13.8125 -0.820312 13.84375 -0.78125 C 13.875 -0.75 13.890625 -0.710938 13.890625 -0.671875 C 13.890625 -0.628906 13.832031 -0.59375 13.71875 -0.5625 L 11.609375 0.125 C 11.453125 0.1875 11.289062 0.242188 11.125 0.296875 C 10.96875 0.359375 10.816406 0.410156 10.671875 0.453125 C 10.523438 0.503906 10.398438 0.539062 10.296875 0.5625 C 10.191406 0.59375 10.113281 0.609375 10.0625 0.609375 L 10.015625 0.609375 C 9.921875 0.609375 9.851562 0.582031 9.8125 0.53125 C 9.769531 0.476562 9.742188 0.425781 9.734375 0.375 C 9.671875 0.15625 9.601562 -0.0351562 9.53125 -0.203125 C 9.46875 -0.378906 9.40625 -0.550781 9.34375 -0.71875 C 9.289062 -0.894531 9.234375 -1.082031 9.171875 -1.28125 C 9.109375 -1.476562 9.046875 -1.707031 8.984375 -1.96875 C 8.972656 -2 8.9375 -2.023438 8.875 -2.046875 C 8.820312 -2.078125 8.753906 -2.097656 8.671875 -2.109375 C 8.585938 -2.117188 8.5 -2.125 8.40625 -2.125 C 8.3125 -2.132812 8.226562 -2.140625 8.15625 -2.140625 C 7.90625 -2.140625 7.703125 -2.132812 7.546875 -2.125 C 7.398438 -2.125 7.265625 -2.125 7.140625 -2.125 C 7.023438 -2.125 6.914062 -2.117188 6.8125 -2.109375 C 6.707031 -2.109375 6.578125 -2.109375 6.421875 -2.109375 C 6.234375 -2.109375 6.035156 -2.109375 5.828125 -2.109375 C 5.628906 -2.117188 5.453125 -2.125 5.296875 -2.125 L 4.734375 -2.15625 C 4.566406 -1.6875 4.394531 -1.242188 4.21875 -0.828125 C 4.050781 -0.421875 3.875 0 3.6875 0.4375 C 3.664062 0.488281 3.628906 0.53125 3.578125 0.5625 C 3.535156 0.59375 3.488281 0.609375 3.4375 0.609375 C 3.394531 0.609375 3.375 0.609375 3.375 0.609375 C 2.738281 0.378906 2.207031 0.15625 1.78125 -0.0625 C 1.351562 -0.289062 0.976562 -0.507812 0.65625 -0.71875 Z M 7.234375 -9.5 C 7.078125 -8.914062 6.921875 -8.382812 6.765625 -7.90625 C 6.617188 -7.4375 6.476562 -7.019531 6.34375 -6.65625 C 6.21875 -6.289062 6.109375 -5.984375 6.015625 -5.734375 C 5.929688 -5.484375 5.867188 -5.289062 5.828125 -5.15625 L 5.828125 -5.0625 C 5.828125 -5.03125 5.828125 -5.003906 5.828125 -4.984375 L 8.171875 -4.984375 C 8.097656 -5.304688 8.019531 -5.628906 7.9375 -5.953125 C 7.851562 -6.285156 7.769531 -6.628906 7.6875 -6.984375 C 7.613281 -7.335938 7.535156 -7.71875 7.453125 -8.125 C 7.378906 -8.539062 7.304688 -9 7.234375 -9.5 Z M 7.234375 -9.5 "/></g></g></g><g fill="#ffffff" fill-opacity="1"><g transform="translate(49.651572, 342.445818)"><g><path d="M 6.421875 -0.78125 C 6.421875 -0.71875 6.410156 -0.660156 6.390625 -0.609375 C 6.378906 -0.554688 6.335938 -0.515625 6.265625 -0.484375 C 6.234375 -0.460938 6.101562 -0.410156 5.875 -0.328125 C 5.644531 -0.253906 5.378906 -0.160156 5.078125 -0.046875 C 4.773438 0.0546875 4.472656 0.160156 4.171875 0.265625 C 3.878906 0.378906 3.65625 0.460938 3.5 0.515625 C 3.414062 0.546875 3.316406 0.578125 3.203125 0.609375 C 3.085938 0.648438 2.976562 0.671875 2.875 0.671875 C 2.78125 0.671875 2.695312 0.644531 2.625 0.59375 C 2.5625 0.550781 2.53125 0.472656 2.53125 0.359375 C 2.53125 0.0664062 2.535156 -0.195312 2.546875 -0.4375 C 2.566406 -0.675781 2.585938 -0.925781 2.609375 -1.1875 C 2.640625 -1.445312 2.671875 -1.734375 2.703125 -2.046875 C 2.734375 -2.359375 2.757812 -2.734375 2.78125 -3.171875 C 2.8125 -3.742188 2.847656 -4.296875 2.890625 -4.828125 C 2.929688 -5.359375 2.972656 -5.910156 3.015625 -6.484375 L 3.140625 -8.15625 C 3.160156 -8.425781 3.179688 -8.703125 3.203125 -8.984375 C 3.222656 -9.273438 3.242188 -9.566406 3.265625 -9.859375 L 3.375 -11.0625 C 3.375 -11.070312 3.351562 -11.078125 3.3125 -11.078125 C 3.257812 -11.078125 3.171875 -11.0625 3.046875 -11.03125 C 2.921875 -11.007812 2.773438 -10.984375 2.609375 -10.953125 C 2.441406 -10.921875 2.253906 -10.882812 2.046875 -10.84375 C 1.835938 -10.8125 1.628906 -10.78125 1.421875 -10.75 C 1.367188 -10.75 1.316406 -10.757812 1.265625 -10.78125 C 1.210938 -10.8125 1.1875 -10.84375 1.1875 -10.875 C 1.1875 -10.894531 1.195312 -10.910156 1.21875 -10.921875 L 2.796875 -13.6875 C 3.148438 -13.769531 3.535156 -13.847656 3.953125 -13.921875 C 4.367188 -14.003906 4.8125 -14.078125 5.28125 -14.140625 C 5.757812 -14.210938 6.265625 -14.269531 6.796875 -14.3125 C 7.328125 -14.351562 7.894531 -14.375 8.5 -14.375 C 9.175781 -14.363281 9.832031 -14.296875 10.46875 -14.171875 C 11.113281 -14.054688 11.6875 -13.851562 12.1875 -13.5625 C 12.6875 -13.28125 13.085938 -12.894531 13.390625 -12.40625 C 13.691406 -11.925781 13.84375 -11.316406 13.84375 -10.578125 C 13.84375 -10.171875 13.769531 -9.789062 13.625 -9.4375 C 13.488281 -9.09375 13.3125 -8.78125 13.09375 -8.5 C 12.875 -8.226562 12.632812 -7.988281 12.375 -7.78125 C 12.113281 -7.570312 11.863281 -7.390625 11.625 -7.234375 C 11.382812 -7.085938 11.171875 -6.96875 10.984375 -6.875 C 10.804688 -6.789062 10.6875 -6.734375 10.625 -6.703125 C 10.625 -6.691406 10.628906 -6.675781 10.640625 -6.65625 C 10.648438 -6.632812 10.671875 -6.597656 10.703125 -6.546875 C 10.734375 -6.492188 10.78125 -6.414062 10.84375 -6.3125 C 10.90625 -6.207031 10.984375 -6.070312 11.078125 -5.90625 C 11.179688 -5.75 11.304688 -5.539062 11.453125 -5.28125 C 11.597656 -5.019531 11.769531 -4.707031 11.96875 -4.34375 C 12.164062 -3.988281 12.394531 -3.59375 12.65625 -3.15625 C 12.914062 -2.726562 13.21875 -2.265625 13.5625 -1.765625 C 13.664062 -1.660156 13.789062 -1.597656 13.9375 -1.578125 C 14.082031 -1.554688 14.210938 -1.539062 14.328125 -1.53125 C 14.453125 -1.53125 14.554688 -1.523438 14.640625 -1.515625 C 14.734375 -1.503906 14.78125 -1.460938 14.78125 -1.390625 C 14.78125 -1.335938 14.722656 -1.273438 14.609375 -1.203125 C 14.503906 -1.140625 14.378906 -1.070312 14.234375 -1 C 14.097656 -0.9375 13.953125 -0.867188 13.796875 -0.796875 C 13.648438 -0.734375 13.539062 -0.679688 13.46875 -0.640625 C 13.3125 -0.566406 13.144531 -0.492188 12.96875 -0.421875 C 12.800781 -0.347656 12.617188 -0.265625 12.421875 -0.171875 C 12.234375 -0.0859375 12.019531 0.0078125 11.78125 0.125 C 11.539062 0.238281 11.273438 0.378906 10.984375 0.546875 C 10.898438 0.585938 10.820312 0.617188 10.75 0.640625 C 10.6875 0.660156 10.625 0.671875 10.5625 0.671875 C 10.445312 0.671875 10.347656 0.640625 10.265625 0.578125 C 10.179688 0.523438 10.109375 0.457031 10.046875 0.375 C 9.992188 0.300781 9.945312 0.222656 9.90625 0.140625 C 9.875 0.0546875 9.84375 -0.0078125 9.8125 -0.0625 L 6.90625 -6.1875 Z M 7.015625 -7.390625 C 7.347656 -7.390625 7.691406 -7.472656 8.046875 -7.640625 C 8.410156 -7.816406 8.738281 -8.035156 9.03125 -8.296875 C 9.320312 -8.566406 9.5625 -8.867188 9.75 -9.203125 C 9.945312 -9.546875 10.046875 -9.890625 10.046875 -10.234375 C 10.046875 -11.179688 9.476562 -11.65625 8.34375 -11.65625 C 8.125 -11.65625 7.941406 -11.640625 7.796875 -11.609375 C 7.660156 -11.578125 7.53125 -11.554688 7.40625 -11.546875 Z M 7.015625 -7.390625 "/></g></g></g><g fill="#ffffff" fill-opacity="1"><g transform="translate(65.630743, 342.445818)"><g><path d="M 2.46875 -0.125 C 2.34375 -0.15625 2.253906 -0.203125 2.203125 -0.265625 C 2.160156 -0.335938 2.140625 -0.421875 2.140625 -0.515625 C 2.140625 -0.523438 2.140625 -0.535156 2.140625 -0.546875 C 2.148438 -0.554688 2.15625 -0.570312 2.15625 -0.59375 C 2.207031 -1.289062 2.257812 -2.023438 2.3125 -2.796875 C 2.375 -3.566406 2.441406 -4.347656 2.515625 -5.140625 C 2.585938 -5.941406 2.660156 -6.738281 2.734375 -7.53125 C 2.804688 -8.332031 2.878906 -9.109375 2.953125 -9.859375 L 2.9375 -9.859375 C 2.914062 -9.859375 2.84375 -9.835938 2.71875 -9.796875 C 2.601562 -9.753906 2.46875 -9.707031 2.3125 -9.65625 C 2.15625 -9.601562 2 -9.554688 1.84375 -9.515625 C 1.6875 -9.484375 1.5625 -9.46875 1.46875 -9.46875 C 1.382812 -9.46875 1.320312 -9.5 1.28125 -9.5625 C 1.25 -9.625 1.234375 -9.695312 1.234375 -9.78125 C 1.234375 -9.832031 1.242188 -9.882812 1.265625 -9.9375 C 1.441406 -10.445312 1.625 -10.921875 1.8125 -11.359375 C 2 -11.804688 2.1875 -12.265625 2.375 -12.734375 C 2.863281 -13.003906 3.375 -13.238281 3.90625 -13.4375 C 4.445312 -13.632812 4.988281 -13.796875 5.53125 -13.921875 C 6.070312 -14.054688 6.613281 -14.160156 7.15625 -14.234375 C 7.695312 -14.304688 8.222656 -14.34375 8.734375 -14.34375 C 9.441406 -14.34375 10.109375 -14.265625 10.734375 -14.109375 C 11.367188 -13.960938 11.914062 -13.738281 12.375 -13.4375 C 12.84375 -13.132812 13.210938 -12.753906 13.484375 -12.296875 C 13.753906 -11.835938 13.890625 -11.296875 13.890625 -10.671875 C 13.890625 -10.410156 13.828125 -10.15625 13.703125 -9.90625 C 13.585938 -9.65625 13.4375 -9.414062 13.25 -9.1875 C 13.070312 -8.96875 12.867188 -8.757812 12.640625 -8.5625 C 12.410156 -8.375 12.1875 -8.203125 11.96875 -8.046875 C 12.28125 -7.816406 12.5625 -7.609375 12.8125 -7.421875 C 13.0625 -7.242188 13.273438 -7.050781 13.453125 -6.84375 C 13.628906 -6.644531 13.757812 -6.421875 13.84375 -6.171875 C 13.9375 -5.921875 13.984375 -5.613281 13.984375 -5.25 C 13.984375 -4.707031 13.882812 -4.1875 13.6875 -3.6875 C 13.5 -3.1875 13.238281 -2.722656 12.90625 -2.296875 C 12.570312 -1.867188 12.175781 -1.484375 11.71875 -1.140625 C 11.257812 -0.796875 10.757812 -0.5 10.21875 -0.25 C 9.6875 -0.0078125 9.117188 0.175781 8.515625 0.3125 C 7.921875 0.445312 7.320312 0.515625 6.71875 0.515625 C 6.5 0.515625 6.203125 0.488281 5.828125 0.4375 C 5.460938 0.394531 5.070312 0.34375 4.65625 0.28125 C 4.25 0.21875 3.847656 0.144531 3.453125 0.0625 C 3.066406 -0.0078125 2.738281 -0.0703125 2.46875 -0.125 Z M 6.96875 -10.84375 C 6.84375 -10.070312 6.738281 -9.289062 6.65625 -8.5 C 6.570312 -7.707031 6.5 -6.9375 6.4375 -6.1875 C 6.375 -5.445312 6.320312 -4.738281 6.28125 -4.0625 C 6.238281 -3.394531 6.191406 -2.800781 6.140625 -2.28125 C 6.398438 -2.28125 6.679688 -2.289062 6.984375 -2.3125 C 7.285156 -2.34375 7.585938 -2.394531 7.890625 -2.46875 C 8.191406 -2.539062 8.484375 -2.632812 8.765625 -2.75 C 9.046875 -2.863281 9.289062 -3.003906 9.5 -3.171875 C 9.71875 -3.335938 9.890625 -3.535156 10.015625 -3.765625 C 10.148438 -4.003906 10.21875 -4.273438 10.21875 -4.578125 C 10.21875 -4.753906 10.160156 -4.910156 10.046875 -5.046875 C 9.941406 -5.191406 9.800781 -5.3125 9.625 -5.40625 C 9.457031 -5.507812 9.269531 -5.59375 9.0625 -5.65625 C 8.851562 -5.726562 8.648438 -5.785156 8.453125 -5.828125 C 8.253906 -5.878906 8.070312 -5.914062 7.90625 -5.9375 C 7.738281 -5.957031 7.613281 -5.972656 7.53125 -5.984375 C 7.4375 -5.992188 7.375 -6.023438 7.34375 -6.078125 C 7.320312 -6.128906 7.3125 -6.195312 7.3125 -6.28125 C 7.3125 -6.363281 7.363281 -6.488281 7.46875 -6.65625 C 7.570312 -6.832031 7.71875 -7.066406 7.90625 -7.359375 L 8.3125 -8.015625 C 8.488281 -8.078125 8.675781 -8.15625 8.875 -8.25 C 9.082031 -8.351562 9.273438 -8.46875 9.453125 -8.59375 C 9.628906 -8.71875 9.773438 -8.859375 9.890625 -9.015625 C 10.003906 -9.179688 10.0625 -9.359375 10.0625 -9.546875 C 10.0625 -10.078125 9.945312 -10.484375 9.71875 -10.765625 C 9.488281 -11.046875 9.15625 -11.1875 8.71875 -11.1875 C 8.226562 -11.1875 7.644531 -11.070312 6.96875 -10.84375 Z M 6.96875 -10.84375 "/></g></g></g><g fill="#ffffff" fill-opacity="1"><g transform="translate(81.199917, 342.445818)"><g><path d="M 1.359375 0.3125 L 1.84375 -6.375 C 2.007812 -8.613281 2.128906 -10.253906 2.203125 -11.296875 C 2.285156 -12.347656 2.328125 -12.867188 2.328125 -12.859375 C 2.328125 -12.972656 2.332031 -13.066406 2.34375 -13.140625 C 2.351562 -13.222656 2.363281 -13.289062 2.375 -13.34375 C 2.394531 -13.394531 2.421875 -13.429688 2.453125 -13.453125 C 2.492188 -13.484375 2.546875 -13.507812 2.609375 -13.53125 L 5.984375 -14.34375 C 6.066406 -14.363281 6.15625 -14.375 6.25 -14.375 C 6.34375 -14.375 6.40625 -14.34375 6.4375 -14.28125 C 6.46875 -14.226562 6.484375 -14.117188 6.484375 -13.953125 C 6.441406 -13.546875 6.40625 -13.164062 6.375 -12.8125 C 6.351562 -12.46875 6.332031 -12.132812 6.3125 -11.8125 C 6.300781 -11.5 6.285156 -11.191406 6.265625 -10.890625 C 6.253906 -10.597656 6.238281 -10.304688 6.21875 -10.015625 C 6.175781 -9.691406 6.140625 -9.367188 6.109375 -9.046875 C 6.085938 -8.734375 6.0625 -8.40625 6.03125 -8.0625 C 6.007812 -7.71875 5.984375 -7.351562 5.953125 -6.96875 C 5.921875 -6.59375 5.882812 -6.179688 5.84375 -5.734375 L 5.421875 -0.59375 C 5.410156 -0.53125 5.394531 -0.46875 5.375 -0.40625 C 5.363281 -0.351562 5.320312 -0.3125 5.25 -0.28125 C 5.25 -0.28125 5.210938 -0.265625 5.140625 -0.234375 C 5.066406 -0.210938 4.96875 -0.179688 4.84375 -0.140625 C 4.726562 -0.0976562 4.59375 -0.0507812 4.4375 0 C 4.28125 0.0390625 4.117188 0.0820312 3.953125 0.125 C 3.648438 0.1875 3.390625 0.25 3.171875 0.3125 C 2.960938 0.375 2.769531 0.429688 2.59375 0.484375 C 2.425781 0.546875 2.269531 0.59375 2.125 0.625 C 1.988281 0.65625 1.847656 0.671875 1.703125 0.671875 C 1.597656 0.671875 1.515625 0.644531 1.453125 0.59375 C 1.390625 0.539062 1.359375 0.445312 1.359375 0.3125 Z M 1.359375 0.3125 "/></g></g></g><g fill="#ffffff" fill-opacity="1"><g transform="translate(89.320833, 342.445818)"><g><path d="M 3.5 0.3125 C 3.53125 -0.164062 3.5625 -0.625 3.59375 -1.0625 C 3.625 -1.507812 3.65625 -1.941406 3.6875 -2.359375 L 4.03125 -6.96875 C 4.070312 -7.3125 4.101562 -7.628906 4.125 -7.921875 C 4.15625 -8.210938 4.175781 -8.492188 4.1875 -8.765625 C 4.207031 -9.046875 4.222656 -9.328125 4.234375 -9.609375 C 4.253906 -9.898438 4.273438 -10.21875 4.296875 -10.5625 C 4.078125 -10.5625 3.847656 -10.5625 3.609375 -10.5625 C 3.378906 -10.5625 3.132812 -10.5625 2.875 -10.5625 L 0.984375 -10.5625 C 0.910156 -10.5625 0.863281 -10.585938 0.84375 -10.640625 C 0.832031 -10.703125 0.828125 -10.753906 0.828125 -10.796875 L 0.828125 -10.875 L 1.90625 -13.6875 L 1.890625 -13.734375 C 1.890625 -13.765625 1.910156 -13.789062 1.953125 -13.8125 C 1.992188 -13.832031 2.09375 -13.851562 2.25 -13.875 C 3.144531 -13.925781 4.015625 -13.972656 4.859375 -14.015625 C 5.703125 -14.066406 6.535156 -14.109375 7.359375 -14.140625 C 8.179688 -14.179688 9.003906 -14.222656 9.828125 -14.265625 C 10.648438 -14.304688 11.5 -14.34375 12.375 -14.375 C 12.445312 -14.375 12.523438 -14.363281 12.609375 -14.34375 C 12.703125 -14.320312 12.75 -14.25 12.75 -14.125 C 12.75 -14.113281 12.742188 -14.101562 12.734375 -14.09375 C 12.734375 -14.082031 12.734375 -14.066406 12.734375 -14.046875 C 12.628906 -13.785156 12.53125 -13.535156 12.4375 -13.296875 C 12.351562 -13.054688 12.269531 -12.816406 12.1875 -12.578125 C 12.101562 -12.347656 12.015625 -12.109375 11.921875 -11.859375 C 11.835938 -11.617188 11.742188 -11.367188 11.640625 -11.109375 C 11.628906 -11.097656 11.613281 -11.0625 11.59375 -11 C 11.582031 -10.945312 11.554688 -10.882812 11.515625 -10.8125 C 11.472656 -10.75 11.421875 -10.6875 11.359375 -10.625 C 11.296875 -10.570312 11.210938 -10.539062 11.109375 -10.53125 C 11.078125 -10.539062 11.046875 -10.546875 11.015625 -10.546875 C 10.984375 -10.546875 10.945312 -10.546875 10.90625 -10.546875 L 8.296875 -10.546875 C 8.265625 -10.210938 8.234375 -9.859375 8.203125 -9.484375 C 8.179688 -9.117188 8.148438 -8.757812 8.109375 -8.40625 L 7.390625 -0.78125 C 7.390625 -0.71875 7.378906 -0.65625 7.359375 -0.59375 C 7.335938 -0.539062 7.296875 -0.503906 7.234375 -0.484375 L 4.46875 0.515625 C 4.394531 0.546875 4.296875 0.578125 4.171875 0.609375 C 4.054688 0.648438 3.945312 0.671875 3.84375 0.671875 C 3.75 0.671875 3.664062 0.644531 3.59375 0.59375 C 3.53125 0.550781 3.5 0.472656 3.5 0.359375 Z M 3.5 0.3125 "/></g></g></g><g fill="#ffffff" fill-opacity="1"><g transform="translate(102.234797, 342.445818)"><g><path d="M 6.421875 -0.78125 C 6.421875 -0.71875 6.410156 -0.660156 6.390625 -0.609375 C 6.378906 -0.554688 6.335938 -0.515625 6.265625 -0.484375 C 6.234375 -0.460938 6.101562 -0.410156 5.875 -0.328125 C 5.644531 -0.253906 5.378906 -0.160156 5.078125 -0.046875 C 4.773438 0.0546875 4.472656 0.160156 4.171875 0.265625 C 3.878906 0.378906 3.65625 0.460938 3.5 0.515625 C 3.414062 0.546875 3.316406 0.578125 3.203125 0.609375 C 3.085938 0.648438 2.976562 0.671875 2.875 0.671875 C 2.78125 0.671875 2.695312 0.644531 2.625 0.59375 C 2.5625 0.550781 2.53125 0.472656 2.53125 0.359375 C 2.53125 0.0664062 2.535156 -0.195312 2.546875 -0.4375 C 2.566406 -0.675781 2.585938 -0.925781 2.609375 -1.1875 C 2.640625 -1.445312 2.671875 -1.734375 2.703125 -2.046875 C 2.734375 -2.359375 2.757812 -2.734375 2.78125 -3.171875 C 2.8125 -3.742188 2.847656 -4.296875 2.890625 -4.828125 C 2.929688 -5.359375 2.972656 -5.910156 3.015625 -6.484375 L 3.140625 -8.15625 C 3.160156 -8.425781 3.179688 -8.703125 3.203125 -8.984375 C 3.222656 -9.273438 3.242188 -9.566406 3.265625 -9.859375 L 3.375 -11.0625 C 3.375 -11.070312 3.351562 -11.078125 3.3125 -11.078125 C 3.257812 -11.078125 3.171875 -11.0625 3.046875 -11.03125 C 2.921875 -11.007812 2.773438 -10.984375 2.609375 -10.953125 C 2.441406 -10.921875 2.253906 -10.882812 2.046875 -10.84375 C 1.835938 -10.8125 1.628906 -10.78125 1.421875 -10.75 C 1.367188 -10.75 1.316406 -10.757812 1.265625 -10.78125 C 1.210938 -10.8125 1.1875 -10.84375 1.1875 -10.875 C 1.1875 -10.894531 1.195312 -10.910156 1.21875 -10.921875 L 2.796875 -13.6875 C 3.148438 -13.769531 3.535156 -13.847656 3.953125 -13.921875 C 4.367188 -14.003906 4.8125 -14.078125 5.28125 -14.140625 C 5.757812 -14.210938 6.265625 -14.269531 6.796875 -14.3125 C 7.328125 -14.351562 7.894531 -14.375 8.5 -14.375 C 9.175781 -14.363281 9.832031 -14.296875 10.46875 -14.171875 C 11.113281 -14.054688 11.6875 -13.851562 12.1875 -13.5625 C 12.6875 -13.28125 13.085938 -12.894531 13.390625 -12.40625 C 13.691406 -11.925781 13.84375 -11.316406 13.84375 -10.578125 C 13.84375 -10.171875 13.769531 -9.789062 13.625 -9.4375 C 13.488281 -9.09375 13.3125 -8.78125 13.09375 -8.5 C 12.875 -8.226562 12.632812 -7.988281 12.375 -7.78125 C 12.113281 -7.570312 11.863281 -7.390625 11.625 -7.234375 C 11.382812 -7.085938 11.171875 -6.96875 10.984375 -6.875 C 10.804688 -6.789062 10.6875 -6.734375 10.625 -6.703125 C 10.625 -6.691406 10.628906 -6.675781 10.640625 -6.65625 C 10.648438 -6.632812 10.671875 -6.597656 10.703125 -6.546875 C 10.734375 -6.492188 10.78125 -6.414062 10.84375 -6.3125 C 10.90625 -6.207031 10.984375 -6.070312 11.078125 -5.90625 C 11.179688 -5.75 11.304688 -5.539062 11.453125 -5.28125 C 11.597656 -5.019531 11.769531 -4.707031 11.96875 -4.34375 C 12.164062 -3.988281 12.394531 -3.59375 12.65625 -3.15625 C 12.914062 -2.726562 13.21875 -2.265625 13.5625 -1.765625 C 13.664062 -1.660156 13.789062 -1.597656 13.9375 -1.578125 C 14.082031 -1.554688 14.210938 -1.539062 14.328125 -1.53125 C 14.453125 -1.53125 14.554688 -1.523438 14.640625 -1.515625 C 14.734375 -1.503906 14.78125 -1.460938 14.78125 -1.390625 C 14.78125 -1.335938 14.722656 -1.273438 14.609375 -1.203125 C 14.503906 -1.140625 14.378906 -1.070312 14.234375 -1 C 14.097656 -0.9375 13.953125 -0.867188 13.796875 -0.796875 C 13.648438 -0.734375 13.539062 -0.679688 13.46875 -0.640625 C 13.3125 -0.566406 13.144531 -0.492188 12.96875 -0.421875 C 12.800781 -0.347656 12.617188 -0.265625 12.421875 -0.171875 C 12.234375 -0.0859375 12.019531 0.0078125 11.78125 0.125 C 11.539062 0.238281 11.273438 0.378906 10.984375 0.546875 C 10.898438 0.585938 10.820312 0.617188 10.75 0.640625 C 10.6875 0.660156 10.625 0.671875 10.5625 0.671875 C 10.445312 0.671875 10.347656 0.640625 10.265625 0.578125 C 10.179688 0.523438 10.109375 0.457031 10.046875 0.375 C 9.992188 0.300781 9.945312 0.222656 9.90625 0.140625 C 9.875 0.0546875 9.84375 -0.0078125 9.8125 -0.0625 L 6.90625 -6.1875 Z M 7.015625 -7.390625 C 7.347656 -7.390625 7.691406 -7.472656 8.046875 -7.640625 C 8.410156 -7.816406 8.738281 -8.035156 9.03125 -8.296875 C 9.320312 -8.566406 9.5625 -8.867188 9.75 -9.203125 C 9.945312 -9.546875 10.046875 -9.890625 10.046875 -10.234375 C 10.046875 -11.179688 9.476562 -11.65625 8.34375 -11.65625 C 8.125 -11.65625 7.941406 -11.640625 7.796875 -11.609375 C 7.660156 -11.578125 7.53125 -11.554688 7.40625 -11.546875 Z M 7.015625 -7.390625 "/></g></g></g><g fill="#ffffff" fill-opacity="1"><g transform="translate(118.21397, 342.445818)"><g><path d="M 0.65625 -0.71875 C 0.738281 -0.882812 0.828125 -1.070312 0.921875 -1.28125 C 1.015625 -1.5 1.097656 -1.726562 1.171875 -1.96875 L 1.4375 -2.625 C 1.320312 -2.789062 1.203125 -2.976562 1.078125 -3.1875 C 0.960938 -3.394531 0.851562 -3.601562 0.75 -3.8125 C 0.65625 -4.03125 0.578125 -4.242188 0.515625 -4.453125 C 0.453125 -4.671875 0.421875 -4.882812 0.421875 -5.09375 C 0.421875 -5.101562 0.46875 -5.113281 0.5625 -5.125 C 0.664062 -5.132812 0.796875 -5.140625 0.953125 -5.140625 C 1.109375 -5.148438 1.273438 -5.15625 1.453125 -5.15625 C 1.628906 -5.164062 1.789062 -5.171875 1.9375 -5.171875 C 2.09375 -5.171875 2.222656 -5.171875 2.328125 -5.171875 C 2.429688 -5.179688 2.484375 -5.1875 2.484375 -5.1875 C 2.628906 -5.570312 2.773438 -5.941406 2.921875 -6.296875 C 3.066406 -6.648438 3.207031 -7.003906 3.34375 -7.359375 C 3.488281 -7.722656 3.632812 -8.09375 3.78125 -8.46875 C 3.925781 -8.84375 4.066406 -9.242188 4.203125 -9.671875 C 4.484375 -10.472656 4.753906 -11.179688 5.015625 -11.796875 C 5.273438 -12.410156 5.519531 -12.976562 5.75 -13.5 C 5.769531 -13.570312 5.8125 -13.632812 5.875 -13.6875 C 5.9375 -13.738281 6.003906 -13.785156 6.078125 -13.828125 C 6.148438 -13.867188 6.21875 -13.898438 6.28125 -13.921875 C 6.351562 -13.953125 6.410156 -13.972656 6.453125 -13.984375 C 6.472656 -13.992188 6.566406 -14.023438 6.734375 -14.078125 C 6.910156 -14.128906 7.109375 -14.179688 7.328125 -14.234375 C 7.554688 -14.296875 7.78125 -14.347656 8 -14.390625 C 8.21875 -14.441406 8.390625 -14.46875 8.515625 -14.46875 L 8.6875 -14.46875 C 8.789062 -14.46875 8.890625 -14.441406 8.984375 -14.390625 C 9.078125 -14.335938 9.144531 -14.242188 9.1875 -14.109375 C 9.5 -13.304688 9.832031 -12.429688 10.1875 -11.484375 C 10.539062 -10.535156 10.882812 -9.488281 11.21875 -8.34375 C 11.40625 -7.738281 11.582031 -7.160156 11.75 -6.609375 C 11.925781 -6.066406 12.101562 -5.535156 12.28125 -5.015625 C 12.457031 -4.492188 12.632812 -3.972656 12.8125 -3.453125 C 13 -2.929688 13.1875 -2.394531 13.375 -1.84375 C 13.425781 -1.601562 13.484375 -1.414062 13.546875 -1.28125 C 13.609375 -1.144531 13.664062 -1.035156 13.71875 -0.953125 C 13.769531 -0.878906 13.8125 -0.820312 13.84375 -0.78125 C 13.875 -0.75 13.890625 -0.710938 13.890625 -0.671875 C 13.890625 -0.628906 13.832031 -0.59375 13.71875 -0.5625 L 11.609375 0.125 C 11.453125 0.1875 11.289062 0.242188 11.125 0.296875 C 10.96875 0.359375 10.816406 0.410156 10.671875 0.453125 C 10.523438 0.503906 10.398438 0.539062 10.296875 0.5625 C 10.191406 0.59375 10.113281 0.609375 10.0625 0.609375 L 10.015625 0.609375 C 9.921875 0.609375 9.851562 0.582031 9.8125 0.53125 C 9.769531 0.476562 9.742188 0.425781 9.734375 0.375 C 9.671875 0.15625 9.601562 -0.0351562 9.53125 -0.203125 C 9.46875 -0.378906 9.40625 -0.550781 9.34375 -0.71875 C 9.289062 -0.894531 9.234375 -1.082031 9.171875 -1.28125 C 9.109375 -1.476562 9.046875 -1.707031 8.984375 -1.96875 C 8.972656 -2 8.9375 -2.023438 8.875 -2.046875 C 8.820312 -2.078125 8.753906 -2.097656 8.671875 -2.109375 C 8.585938 -2.117188 8.5 -2.125 8.40625 -2.125 C 8.3125 -2.132812 8.226562 -2.140625 8.15625 -2.140625 C 7.90625 -2.140625 7.703125 -2.132812 7.546875 -2.125 C 7.398438 -2.125 7.265625 -2.125 7.140625 -2.125 C 7.023438 -2.125 6.914062 -2.117188 6.8125 -2.109375 C 6.707031 -2.109375 6.578125 -2.109375 6.421875 -2.109375 C 6.234375 -2.109375 6.035156 -2.109375 5.828125 -2.109375 C 5.628906 -2.117188 5.453125 -2.125 5.296875 -2.125 L 4.734375 -2.15625 C 4.566406 -1.6875 4.394531 -1.242188 4.21875 -0.828125 C 4.050781 -0.421875 3.875 0 3.6875 0.4375 C 3.664062 0.488281 3.628906 0.53125 3.578125 0.5625 C 3.535156 0.59375 3.488281 0.609375 3.4375 0.609375 C 3.394531 0.609375 3.375 0.609375 3.375 0.609375 C 2.738281 0.378906 2.207031 0.15625 1.78125 -0.0625 C 1.351562 -0.289062 0.976562 -0.507812 0.65625 -0.71875 Z M 7.234375 -9.5 C 7.078125 -8.914062 6.921875 -8.382812 6.765625 -7.90625 C 6.617188 -7.4375 6.476562 -7.019531 6.34375 -6.65625 C 6.21875 -6.289062 6.109375 -5.984375 6.015625 -5.734375 C 5.929688 -5.484375 5.867188 -5.289062 5.828125 -5.15625 L 5.828125 -5.0625 C 5.828125 -5.03125 5.828125 -5.003906 5.828125 -4.984375 L 8.171875 -4.984375 C 8.097656 -5.304688 8.019531 -5.628906 7.9375 -5.953125 C 7.851562 -6.285156 7.769531 -6.628906 7.6875 -6.984375 C 7.613281 -7.335938 7.535156 -7.71875 7.453125 -8.125 C 7.378906 -8.539062 7.304688 -9 7.234375 -9.5 Z M 7.234375 -9.5 "/></g></g></g><g fill="#ffffff" fill-opacity="1"><g transform="translate(133.343865, 342.445818)"><g><path d="M 3.5 0.3125 C 3.53125 -0.164062 3.5625 -0.625 3.59375 -1.0625 C 3.625 -1.507812 3.65625 -1.941406 3.6875 -2.359375 L 4.03125 -6.96875 C 4.070312 -7.3125 4.101562 -7.628906 4.125 -7.921875 C 4.15625 -8.210938 4.175781 -8.492188 4.1875 -8.765625 C 4.207031 -9.046875 4.222656 -9.328125 4.234375 -9.609375 C 4.253906 -9.898438 4.273438 -10.21875 4.296875 -10.5625 C 4.078125 -10.5625 3.847656 -10.5625 3.609375 -10.5625 C 3.378906 -10.5625 3.132812 -10.5625 2.875 -10.5625 L 0.984375 -10.5625 C 0.910156 -10.5625 0.863281 -10.585938 0.84375 -10.640625 C 0.832031 -10.703125 0.828125 -10.753906 0.828125 -10.796875 L 0.828125 -10.875 L 1.90625 -13.6875 L 1.890625 -13.734375 C 1.890625 -13.765625 1.910156 -13.789062 1.953125 -13.8125 C 1.992188 -13.832031 2.09375 -13.851562 2.25 -13.875 C 3.144531 -13.925781 4.015625 -13.972656 4.859375 -14.015625 C 5.703125 -14.066406 6.535156 -14.109375 7.359375 -14.140625 C 8.179688 -14.179688 9.003906 -14.222656 9.828125 -14.265625 C 10.648438 -14.304688 11.5 -14.34375 12.375 -14.375 C 12.445312 -14.375 12.523438 -14.363281 12.609375 -14.34375 C 12.703125 -14.320312 12.75 -14.25 12.75 -14.125 C 12.75 -14.113281 12.742188 -14.101562 12.734375 -14.09375 C 12.734375 -14.082031 12.734375 -14.066406 12.734375 -14.046875 C 12.628906 -13.785156 12.53125 -13.535156 12.4375 -13.296875 C 12.351562 -13.054688 12.269531 -12.816406 12.1875 -12.578125 C 12.101562 -12.347656 12.015625 -12.109375 11.921875 -11.859375 C 11.835938 -11.617188 11.742188 -11.367188 11.640625 -11.109375 C 11.628906 -11.097656 11.613281 -11.0625 11.59375 -11 C 11.582031 -10.945312 11.554688 -10.882812 11.515625 -10.8125 C 11.472656 -10.75 11.421875 -10.6875 11.359375 -10.625 C 11.296875 -10.570312 11.210938 -10.539062 11.109375 -10.53125 C 11.078125 -10.539062 11.046875 -10.546875 11.015625 -10.546875 C 10.984375 -10.546875 10.945312 -10.546875 10.90625 -10.546875 L 8.296875 -10.546875 C 8.265625 -10.210938 8.234375 -9.859375 8.203125 -9.484375 C 8.179688 -9.117188 8.148438 -8.757812 8.109375 -8.40625 L 7.390625 -0.78125 C 7.390625 -0.71875 7.378906 -0.65625 7.359375 -0.59375 C 7.335938 -0.539062 7.296875 -0.503906 7.234375 -0.484375 L 4.46875 0.515625 C 4.394531 0.546875 4.296875 0.578125 4.171875 0.609375 C 4.054688 0.648438 3.945312 0.671875 3.84375 0.671875 C 3.75 0.671875 3.664062 0.644531 3.59375 0.59375 C 3.53125 0.550781 3.5 0.472656 3.5 0.359375 Z M 3.5 0.3125 "/></g></g></g><g fill="#ffffff" fill-opacity="1"><g transform="translate(146.257824, 342.445818)"><g><path d="M 1.359375 0.3125 L 1.84375 -6.375 C 2.007812 -8.613281 2.128906 -10.253906 2.203125 -11.296875 C 2.285156 -12.347656 2.328125 -12.867188 2.328125 -12.859375 C 2.328125 -12.972656 2.332031 -13.066406 2.34375 -13.140625 C 2.351562 -13.222656 2.363281 -13.289062 2.375 -13.34375 C 2.394531 -13.394531 2.421875 -13.429688 2.453125 -13.453125 C 2.492188 -13.484375 2.546875 -13.507812 2.609375 -13.53125 L 5.984375 -14.34375 C 6.066406 -14.363281 6.15625 -14.375 6.25 -14.375 C 6.34375 -14.375 6.40625 -14.34375 6.4375 -14.28125 C 6.46875 -14.226562 6.484375 -14.117188 6.484375 -13.953125 C 6.441406 -13.546875 6.40625 -13.164062 6.375 -12.8125 C 6.351562 -12.46875 6.332031 -12.132812 6.3125 -11.8125 C 6.300781 -11.5 6.285156 -11.191406 6.265625 -10.890625 C 6.253906 -10.597656 6.238281 -10.304688 6.21875 -10.015625 C 6.175781 -9.691406 6.140625 -9.367188 6.109375 -9.046875 C 6.085938 -8.734375 6.0625 -8.40625 6.03125 -8.0625 C 6.007812 -7.71875 5.984375 -7.351562 5.953125 -6.96875 C 5.921875 -6.59375 5.882812 -6.179688 5.84375 -5.734375 L 5.421875 -0.59375 C 5.410156 -0.53125 5.394531 -0.46875 5.375 -0.40625 C 5.363281 -0.351562 5.320312 -0.3125 5.25 -0.28125 C 5.25 -0.28125 5.210938 -0.265625 5.140625 -0.234375 C 5.066406 -0.210938 4.96875 -0.179688 4.84375 -0.140625 C 4.726562 -0.0976562 4.59375 -0.0507812 4.4375 0 C 4.28125 0.0390625 4.117188 0.0820312 3.953125 0.125 C 3.648438 0.1875 3.390625 0.25 3.171875 0.3125 C 2.960938 0.375 2.769531 0.429688 2.59375 0.484375 C 2.425781 0.546875 2.269531 0.59375 2.125 0.625 C 1.988281 0.65625 1.847656 0.671875 1.703125 0.671875 C 1.597656 0.671875 1.515625 0.644531 1.453125 0.59375 C 1.390625 0.539062 1.359375 0.445312 1.359375 0.3125 Z M 1.359375 0.3125 "/></g></g></g><g fill="#ffffff" fill-opacity="1"><g transform="translate(154.378734, 342.445818)"><g><path d="M 5.484375 -6.65625 C 5.484375 -6.1875 5.53125 -5.71875 5.625 -5.25 C 5.726562 -4.78125 5.894531 -4.351562 6.125 -3.96875 C 6.363281 -3.59375 6.675781 -3.285156 7.0625 -3.046875 C 7.445312 -2.816406 7.921875 -2.703125 8.484375 -2.703125 C 8.921875 -2.734375 9.300781 -2.820312 9.625 -2.96875 C 9.957031 -3.125 10.242188 -3.320312 10.484375 -3.5625 C 10.722656 -3.8125 10.921875 -4.09375 11.078125 -4.40625 C 11.234375 -4.726562 11.351562 -5.0625 11.4375 -5.40625 C 11.53125 -5.75 11.59375 -6.101562 11.625 -6.46875 C 11.664062 -6.832031 11.6875 -7.1875 11.6875 -7.53125 C 11.6875 -7.988281 11.625 -8.429688 11.5 -8.859375 C 11.375 -9.296875 11.1875 -9.679688 10.9375 -10.015625 C 10.695312 -10.347656 10.390625 -10.613281 10.015625 -10.8125 C 9.648438 -11.019531 9.222656 -11.125 8.734375 -11.125 C 8.359375 -11.125 8.015625 -11.050781 7.703125 -10.90625 C 7.390625 -10.757812 7.113281 -10.566406 6.875 -10.328125 C 6.632812 -10.097656 6.425781 -9.828125 6.25 -9.515625 C 6.082031 -9.203125 5.941406 -8.878906 5.828125 -8.546875 C 5.710938 -8.222656 5.625 -7.894531 5.5625 -7.5625 C 5.507812 -7.238281 5.484375 -6.9375 5.484375 -6.65625 Z M 7.390625 0.515625 C 6.410156 0.515625 5.535156 0.332031 4.765625 -0.03125 C 3.992188 -0.40625 3.34375 -0.898438 2.8125 -1.515625 C 2.28125 -2.140625 1.875 -2.859375 1.59375 -3.671875 C 1.3125 -4.492188 1.171875 -5.359375 1.171875 -6.265625 C 1.171875 -7.285156 1.316406 -8.226562 1.609375 -9.09375 C 1.898438 -9.957031 2.304688 -10.722656 2.828125 -11.390625 C 3.347656 -12.054688 3.96875 -12.617188 4.6875 -13.078125 C 5.40625 -13.535156 6.191406 -13.878906 7.046875 -14.109375 C 7.128906 -14.109375 7.191406 -14.164062 7.234375 -14.28125 C 7.273438 -14.40625 7.3125 -14.539062 7.34375 -14.6875 C 7.375 -14.84375 7.410156 -14.984375 7.453125 -15.109375 C 7.503906 -15.234375 7.570312 -15.296875 7.65625 -15.296875 C 8.914062 -15.160156 10.050781 -14.9375 11.0625 -14.625 C 12.070312 -14.3125 12.925781 -13.859375 13.625 -13.265625 C 14.332031 -12.679688 14.875 -11.941406 15.25 -11.046875 C 15.625 -10.148438 15.8125 -9.0625 15.8125 -7.78125 C 15.8125 -6.945312 15.707031 -6.164062 15.5 -5.4375 C 15.300781 -4.707031 15.019531 -4.035156 14.65625 -3.421875 C 14.289062 -2.804688 13.851562 -2.253906 13.34375 -1.765625 C 12.832031 -1.285156 12.265625 -0.875 11.640625 -0.53125 C 11.015625 -0.195312 10.34375 0.0546875 9.625 0.234375 C 8.90625 0.421875 8.160156 0.515625 7.390625 0.515625 Z M 7.390625 0.515625 "/></g></g></g><g fill="#ffffff" fill-opacity="1"><g transform="translate(171.75384, 342.445818)"><g><path d="M 9.671875 -13.09375 C 9.722656 -13.300781 9.769531 -13.453125 9.8125 -13.546875 C 9.851562 -13.648438 9.9375 -13.71875 10.0625 -13.75 L 12.59375 -14.34375 C 12.675781 -14.375 12.765625 -14.390625 12.859375 -14.390625 C 12.941406 -14.390625 13 -14.359375 13.03125 -14.296875 C 13.070312 -14.234375 13.09375 -14.125 13.09375 -13.96875 C 13.050781 -13.8125 13.015625 -13.570312 12.984375 -13.25 C 12.960938 -12.925781 12.945312 -12.570312 12.9375 -12.1875 C 12.925781 -11.800781 12.914062 -11.414062 12.90625 -11.03125 C 12.90625 -10.644531 12.90625 -10.304688 12.90625 -10.015625 L 12.90625 -9.484375 C 12.90625 -9.078125 12.898438 -8.632812 12.890625 -8.15625 C 12.878906 -7.6875 12.867188 -7.207031 12.859375 -6.71875 C 12.859375 -6.226562 12.847656 -5.742188 12.828125 -5.265625 C 12.816406 -4.796875 12.804688 -4.351562 12.796875 -3.9375 L 12.734375 -2.265625 C 12.722656 -2.234375 12.71875 -2.203125 12.71875 -2.171875 C 12.71875 -2.148438 12.71875 -2.125 12.71875 -2.09375 L 12.71875 -1.953125 C 12.71875 -1.835938 12.71875 -1.742188 12.71875 -1.671875 C 12.726562 -1.597656 12.734375 -1.53125 12.734375 -1.46875 C 12.734375 -1.40625 12.726562 -1.347656 12.71875 -1.296875 C 12.707031 -1.242188 12.679688 -1.191406 12.640625 -1.140625 C 12.609375 -1.097656 12.554688 -1.050781 12.484375 -1 C 12.421875 -0.945312 12.328125 -0.878906 12.203125 -0.796875 C 12.140625 -0.753906 12.03125 -0.6875 11.875 -0.59375 C 11.726562 -0.507812 11.5625 -0.410156 11.375 -0.296875 C 11.195312 -0.191406 11.007812 -0.0820312 10.8125 0.03125 C 10.625 0.15625 10.445312 0.265625 10.28125 0.359375 C 10.125 0.453125 9.992188 0.523438 9.890625 0.578125 C 9.785156 0.640625 9.734375 0.671875 9.734375 0.671875 L 5.203125 -6.296875 L 4.796875 -0.59375 C 4.785156 -0.539062 4.769531 -0.484375 4.75 -0.421875 C 4.738281 -0.359375 4.695312 -0.3125 4.625 -0.28125 C 4.570312 -0.257812 4.472656 -0.21875 4.328125 -0.15625 C 4.179688 -0.101562 4.007812 -0.0390625 3.8125 0.03125 C 3.625 0.101562 3.425781 0.175781 3.21875 0.25 C 3.007812 0.320312 2.804688 0.390625 2.609375 0.453125 C 2.421875 0.515625 2.253906 0.566406 2.109375 0.609375 C 1.960938 0.648438 1.863281 0.671875 1.8125 0.671875 C 1.71875 0.671875 1.632812 0.644531 1.5625 0.59375 C 1.5 0.539062 1.46875 0.441406 1.46875 0.296875 C 1.539062 -0.515625 1.617188 -1.398438 1.703125 -2.359375 C 1.785156 -3.316406 1.863281 -4.300781 1.9375 -5.3125 C 2.019531 -6.320312 2.09375 -7.328125 2.15625 -8.328125 C 2.226562 -9.335938 2.285156 -10.296875 2.328125 -11.203125 C 2.328125 -11.222656 2.285156 -11.304688 2.203125 -11.453125 C 2.128906 -11.609375 2.039062 -11.769531 1.9375 -11.9375 C 1.832031 -12.113281 1.738281 -12.273438 1.65625 -12.421875 C 1.582031 -12.578125 1.546875 -12.675781 1.546875 -12.71875 C 1.546875 -12.757812 1.566406 -12.800781 1.609375 -12.84375 C 1.660156 -12.882812 1.742188 -12.9375 1.859375 -13 L 4.46875 -14.46875 C 4.488281 -14.46875 4.515625 -14.472656 4.546875 -14.484375 C 4.578125 -14.492188 4.609375 -14.5 4.640625 -14.5 C 4.710938 -14.5 4.769531 -14.488281 4.8125 -14.46875 C 4.851562 -14.445312 4.894531 -14.394531 4.9375 -14.3125 L 9.671875 -5.765625 Z M 9.671875 -13.09375 "/></g></g></g><g fill="#ffffff" fill-opacity="1"><g transform="translate(186.815397, 342.445818)"><g/></g></g><g fill="#ffffff" fill-opacity="1"><g transform="translate(192.710614, 342.445818)"><g><path d="M 0.78125 -2.90625 C 0.78125 -3.101562 0.785156 -3.296875 0.796875 -3.484375 C 0.816406 -3.671875 0.863281 -3.859375 0.9375 -4.046875 C 1.007812 -4.242188 1.117188 -4.445312 1.265625 -4.65625 C 1.421875 -4.875 1.632812 -5.113281 1.90625 -5.375 C 2.175781 -5.632812 2.515625 -5.921875 2.921875 -6.234375 C 3.328125 -6.554688 3.820312 -6.921875 4.40625 -7.328125 C 4 -7.867188 3.695312 -8.414062 3.5 -8.96875 C 3.300781 -9.53125 3.203125 -10.070312 3.203125 -10.59375 C 3.203125 -11.082031 3.316406 -11.539062 3.546875 -11.96875 C 3.773438 -12.40625 4.113281 -12.78125 4.5625 -13.09375 C 5.019531 -13.414062 5.570312 -13.671875 6.21875 -13.859375 C 6.875 -14.046875 7.628906 -14.140625 8.484375 -14.140625 C 8.660156 -14.140625 8.859375 -14.117188 9.078125 -14.078125 C 9.304688 -14.035156 9.535156 -13.96875 9.765625 -13.875 C 10.003906 -13.78125 10.234375 -13.660156 10.453125 -13.515625 C 10.671875 -13.367188 10.863281 -13.1875 11.03125 -12.96875 C 11.207031 -12.75 11.347656 -12.492188 11.453125 -12.203125 C 11.566406 -11.921875 11.625 -11.59375 11.625 -11.21875 C 11.625 -10.875 11.566406 -10.5625 11.453125 -10.28125 C 11.335938 -10.007812 11.164062 -9.734375 10.9375 -9.453125 C 10.707031 -9.171875 10.410156 -8.867188 10.046875 -8.546875 C 9.691406 -8.222656 9.273438 -7.84375 8.796875 -7.40625 L 11.125 -5.546875 C 11.195312 -5.484375 11.265625 -5.421875 11.328125 -5.359375 C 11.398438 -5.304688 11.472656 -5.28125 11.546875 -5.28125 C 11.585938 -5.332031 11.625 -5.359375 11.65625 -5.359375 C 11.6875 -5.367188 11.722656 -5.375 11.765625 -5.375 L 13.984375 -7.4375 C 14.097656 -7.394531 14.242188 -7.304688 14.421875 -7.171875 C 14.609375 -7.035156 14.785156 -6.878906 14.953125 -6.703125 C 15.117188 -6.535156 15.257812 -6.363281 15.375 -6.1875 C 15.488281 -6.007812 15.546875 -5.859375 15.546875 -5.734375 C 15.546875 -5.648438 15.535156 -5.585938 15.515625 -5.546875 L 13.734375 -3.6875 L 13.84375 -3.59375 C 13.90625 -3.550781 13.976562 -3.5 14.0625 -3.4375 C 14.144531 -3.375 14.234375 -3.304688 14.328125 -3.234375 C 14.429688 -3.160156 14.539062 -3.082031 14.65625 -3 C 14.769531 -2.914062 14.882812 -2.835938 15 -2.765625 C 15.0625 -2.722656 15.097656 -2.675781 15.109375 -2.625 C 15.128906 -2.570312 15.140625 -2.535156 15.140625 -2.515625 C 15.140625 -2.429688 15.097656 -2.316406 15.015625 -2.171875 C 14.941406 -2.035156 14.84375 -1.890625 14.71875 -1.734375 C 14.601562 -1.578125 14.472656 -1.414062 14.328125 -1.25 C 14.179688 -1.082031 14.035156 -0.925781 13.890625 -0.78125 C 13.742188 -0.632812 13.609375 -0.5 13.484375 -0.375 C 13.359375 -0.257812 13.265625 -0.175781 13.203125 -0.125 C 13.140625 -0.0507812 13.070312 -0.015625 13 -0.015625 C 12.945312 -0.015625 12.898438 -0.0351562 12.859375 -0.078125 L 10.90625 -1.28125 C 10.238281 -0.925781 9.65625 -0.632812 9.15625 -0.40625 C 8.664062 -0.175781 8.203125 0.00390625 7.765625 0.140625 C 7.335938 0.273438 6.914062 0.367188 6.5 0.421875 C 6.082031 0.472656 5.628906 0.5 5.140625 0.5 C 4.585938 0.5 4.050781 0.429688 3.53125 0.296875 C 3.007812 0.160156 2.546875 -0.046875 2.140625 -0.328125 C 1.734375 -0.617188 1.40625 -0.972656 1.15625 -1.390625 C 0.90625 -1.816406 0.78125 -2.320312 0.78125 -2.90625 Z M 5.015625 -3.53125 C 5.015625 -3.382812 5.035156 -3.238281 5.078125 -3.09375 C 5.117188 -2.945312 5.1875 -2.8125 5.28125 -2.6875 C 5.382812 -2.570312 5.519531 -2.472656 5.6875 -2.390625 C 5.851562 -2.316406 6.070312 -2.28125 6.34375 -2.28125 C 6.425781 -2.28125 6.539062 -2.285156 6.6875 -2.296875 C 6.84375 -2.304688 7.015625 -2.335938 7.203125 -2.390625 C 7.390625 -2.453125 7.597656 -2.546875 7.828125 -2.671875 C 8.054688 -2.796875 8.300781 -2.960938 8.5625 -3.171875 L 6.234375 -5.4375 C 6.085938 -5.351562 5.941406 -5.257812 5.796875 -5.15625 C 5.660156 -5.0625 5.53125 -4.941406 5.40625 -4.796875 C 5.289062 -4.648438 5.195312 -4.472656 5.125 -4.265625 C 5.050781 -4.066406 5.015625 -3.820312 5.015625 -3.53125 Z M 7.71875 -11.859375 C 7.507812 -11.859375 7.328125 -11.820312 7.171875 -11.75 C 7.023438 -11.6875 6.898438 -11.601562 6.796875 -11.5 C 6.703125 -11.394531 6.628906 -11.269531 6.578125 -11.125 C 6.535156 -10.988281 6.515625 -10.84375 6.515625 -10.6875 C 6.515625 -10.445312 6.566406 -10.203125 6.671875 -9.953125 C 6.785156 -9.703125 6.945312 -9.476562 7.15625 -9.28125 C 7.65625 -9.625 8.015625 -9.957031 8.234375 -10.28125 C 8.453125 -10.601562 8.5625 -10.890625 8.5625 -11.140625 C 8.5625 -11.359375 8.484375 -11.53125 8.328125 -11.65625 C 8.179688 -11.789062 7.976562 -11.859375 7.71875 -11.859375 Z M 7.71875 -11.859375 "/></g></g></g><g fill="#ffffff" fill-opacity="1"><g transform="translate(209.539058, 342.445818)"><g/></g></g><g fill="#ffffff" fill-opacity="1"><g transform="translate(215.434276, 342.445818)"><g><path d="M 14.03125 -14.375 C 14.0625 -14.382812 14.09375 -14.390625 14.125 -14.390625 C 14.15625 -14.390625 14.179688 -14.390625 14.203125 -14.390625 C 14.328125 -14.390625 14.421875 -14.351562 14.484375 -14.28125 C 14.554688 -14.207031 14.609375 -14.078125 14.640625 -13.890625 C 14.648438 -13.773438 14.671875 -13.609375 14.703125 -13.390625 C 14.734375 -13.179688 14.765625 -12.945312 14.796875 -12.6875 C 14.835938 -12.4375 14.878906 -12.171875 14.921875 -11.890625 C 14.960938 -11.617188 15 -11.367188 15.03125 -11.140625 C 15.0625 -10.910156 15.085938 -10.710938 15.109375 -10.546875 C 15.140625 -10.378906 15.160156 -10.269531 15.171875 -10.21875 C 15.304688 -9.070312 15.429688 -8.148438 15.546875 -7.453125 C 15.660156 -6.753906 15.738281 -6.238281 15.78125 -5.90625 L 16.4375 -0.625 L 16.34375 -0.328125 C 16.320312 -0.273438 16.234375 -0.21875 16.078125 -0.15625 C 15.921875 -0.09375 15.734375 -0.0234375 15.515625 0.046875 C 15.296875 0.128906 15.054688 0.203125 14.796875 0.265625 C 14.535156 0.335938 14.289062 0.40625 14.0625 0.46875 C 13.84375 0.53125 13.65625 0.578125 13.5 0.609375 C 13.351562 0.648438 13.273438 0.671875 13.265625 0.671875 C 13.109375 0.671875 12.984375 0.554688 12.890625 0.328125 C 12.804688 0.0976562 12.734375 -0.191406 12.671875 -0.546875 C 12.617188 -0.898438 12.570312 -1.285156 12.53125 -1.703125 C 12.5 -2.117188 12.457031 -2.519531 12.40625 -2.90625 C 12.375 -3.21875 12.335938 -3.535156 12.296875 -3.859375 C 12.265625 -4.191406 12.234375 -4.523438 12.203125 -4.859375 L 11.8125 -7.71875 L 8.1875 -1.078125 C 8.082031 -0.921875 7.972656 -0.804688 7.859375 -0.734375 C 7.753906 -0.671875 7.648438 -0.640625 7.546875 -0.640625 C 7.398438 -0.640625 7.285156 -0.679688 7.203125 -0.765625 C 7.128906 -0.859375 7.078125 -0.960938 7.046875 -1.078125 C 6.921875 -1.492188 6.8125 -1.84375 6.71875 -2.125 C 6.632812 -2.40625 6.554688 -2.660156 6.484375 -2.890625 C 6.410156 -3.128906 6.335938 -3.359375 6.265625 -3.578125 C 6.203125 -3.804688 6.128906 -4.0625 6.046875 -4.34375 C 5.960938 -4.632812 5.867188 -4.976562 5.765625 -5.375 C 5.671875 -5.769531 5.550781 -6.253906 5.40625 -6.828125 L 5.109375 -5.421875 L 3.703125 0.546875 C 3.679688 0.628906 3.597656 0.671875 3.453125 0.671875 C 3.316406 0.671875 3.128906 0.644531 2.890625 0.59375 C 2.660156 0.539062 2.414062 0.472656 2.15625 0.390625 C 1.894531 0.316406 1.640625 0.238281 1.390625 0.15625 C 1.148438 0.0820312 0.960938 0.0078125 0.828125 -0.0625 C 0.785156 -0.0703125 0.738281 -0.0976562 0.6875 -0.140625 C 0.644531 -0.191406 0.625 -0.269531 0.625 -0.375 C 0.625 -0.40625 0.632812 -0.460938 0.65625 -0.546875 C 0.675781 -0.628906 0.695312 -0.726562 0.71875 -0.84375 C 0.75 -0.957031 0.78125 -1.070312 0.8125 -1.1875 C 0.851562 -1.3125 0.890625 -1.414062 0.921875 -1.5 C 1.015625 -1.726562 1.09375 -1.988281 1.15625 -2.28125 C 1.226562 -2.582031 1.289062 -2.882812 1.34375 -3.1875 C 1.40625 -3.5 1.457031 -3.796875 1.5 -4.078125 C 1.550781 -4.359375 1.601562 -4.59375 1.65625 -4.78125 L 2.859375 -10.375 L 3.21875 -11.96875 C 3.257812 -12.164062 3.300781 -12.359375 3.34375 -12.546875 C 3.382812 -12.742188 3.421875 -12.921875 3.453125 -13.078125 C 3.484375 -13.234375 3.507812 -13.359375 3.53125 -13.453125 C 3.550781 -13.554688 3.5625 -13.613281 3.5625 -13.625 L 6 -14.375 C 6.09375 -14.375 6.171875 -14.363281 6.234375 -14.34375 C 6.304688 -14.332031 6.351562 -14.28125 6.375 -14.1875 L 8.328125 -7.9375 L 10.984375 -13.5625 Z M 14.03125 -14.375 "/></g></g></g><g fill="#ffffff" fill-opacity="1"><g transform="translate(233.912466, 342.445818)"><g><path d="M 9.984375 -8.109375 C 9.960938 -8.015625 9.914062 -7.882812 9.84375 -7.71875 C 9.769531 -7.550781 9.6875 -7.363281 9.59375 -7.15625 C 9.5 -6.945312 9.394531 -6.722656 9.28125 -6.484375 C 9.175781 -6.253906 9.070312 -6.015625 8.96875 -5.765625 C 8.9375 -5.679688 8.898438 -5.617188 8.859375 -5.578125 C 8.828125 -5.535156 8.773438 -5.503906 8.703125 -5.484375 C 8.640625 -5.460938 8.539062 -5.445312 8.40625 -5.4375 C 8.28125 -5.4375 8.101562 -5.4375 7.875 -5.4375 L 6.53125 -5.40625 L 6.25 -2.40625 L 11.265625 -2.40625 L 11.265625 -2.03125 C 11.242188 -2.019531 11.1875 -1.929688 11.09375 -1.765625 C 11 -1.609375 10.882812 -1.421875 10.75 -1.203125 C 10.625 -0.984375 10.488281 -0.757812 10.34375 -0.53125 C 10.195312 -0.3125 10.078125 -0.128906 9.984375 0.015625 C 9.921875 0.128906 9.84375 0.21875 9.75 0.28125 C 9.664062 0.351562 9.570312 0.40625 9.46875 0.4375 C 9.375 0.46875 9.265625 0.488281 9.140625 0.5 C 9.023438 0.507812 8.894531 0.515625 8.75 0.515625 C 8.164062 0.515625 7.554688 0.5 6.921875 0.46875 C 6.285156 0.445312 5.648438 0.414062 5.015625 0.375 C 4.390625 0.332031 3.773438 0.285156 3.171875 0.234375 C 2.566406 0.191406 2.007812 0.144531 1.5 0.09375 C 1.445312 0.0820312 1.398438 0.0507812 1.359375 0 C 1.328125 -0.0390625 1.3125 -0.0859375 1.3125 -0.140625 C 1.289062 -0.140625 1.3125 -0.195312 1.375 -0.3125 C 1.4375 -0.425781 1.519531 -0.566406 1.625 -0.734375 C 1.738281 -0.910156 1.863281 -1.113281 2 -1.34375 C 2.132812 -1.570312 2.265625 -1.796875 2.390625 -2.015625 L 2.546875 -4.21875 C 2.566406 -4.59375 2.582031 -4.867188 2.59375 -5.046875 C 2.613281 -5.234375 2.625 -5.332031 2.625 -5.34375 C 2.238281 -5.351562 1.945312 -5.375 1.75 -5.40625 C 1.5625 -5.4375 1.46875 -5.503906 1.46875 -5.609375 C 1.46875 -5.660156 1.515625 -5.757812 1.609375 -5.90625 C 1.703125 -6.050781 1.816406 -6.21875 1.953125 -6.40625 C 2.085938 -6.59375 2.234375 -6.785156 2.390625 -6.984375 C 2.546875 -7.179688 2.679688 -7.367188 2.796875 -7.546875 L 3.03125 -10.859375 L 3.015625 -10.859375 C 2.867188 -10.847656 2.734375 -10.84375 2.609375 -10.84375 C 2.492188 -10.84375 2.390625 -10.84375 2.296875 -10.84375 C 1.984375 -10.84375 1.757812 -10.859375 1.625 -10.890625 C 1.488281 -10.929688 1.421875 -11 1.421875 -11.09375 C 1.421875 -11.132812 1.457031 -11.226562 1.53125 -11.375 C 1.613281 -11.519531 1.710938 -11.6875 1.828125 -11.875 C 1.953125 -12.0625 2.078125 -12.253906 2.203125 -12.453125 C 2.335938 -12.660156 2.457031 -12.851562 2.5625 -13.03125 L 3.140625 -14.03125 L 7.234375 -14.03125 L 12.046875 -14.375 C 12.046875 -14.375 12.0625 -14.367188 12.09375 -14.359375 C 12.125 -14.359375 12.15625 -14.347656 12.1875 -14.328125 C 12.21875 -14.316406 12.25 -14.289062 12.28125 -14.25 C 12.3125 -14.21875 12.328125 -14.164062 12.328125 -14.09375 L 12.171875 -13.578125 C 12.128906 -13.441406 12.078125 -13.289062 12.015625 -13.125 C 11.953125 -12.96875 11.878906 -12.804688 11.796875 -12.640625 L 11.375 -11.5 C 11.320312 -11.394531 11.265625 -11.3125 11.203125 -11.25 C 11.148438 -11.1875 11.03125 -11.15625 10.84375 -11.15625 C 10.34375 -11.144531 9.785156 -11.125 9.171875 -11.09375 C 8.566406 -11.0625 7.875 -11.03125 7.09375 -11 C 7.0625 -10.914062 7.046875 -10.84375 7.046875 -10.78125 C 7.046875 -10.726562 7.039062 -10.625 7.03125 -10.46875 L 6.984375 -10.015625 C 6.972656 -9.804688 6.953125 -9.582031 6.921875 -9.34375 C 6.898438 -9.101562 6.867188 -8.804688 6.828125 -8.453125 C 7.160156 -8.472656 7.484375 -8.488281 7.796875 -8.5 C 8.109375 -8.507812 8.394531 -8.519531 8.65625 -8.53125 C 8.914062 -8.539062 9.140625 -8.546875 9.328125 -8.546875 C 9.523438 -8.554688 9.664062 -8.5625 9.75 -8.5625 C 9.800781 -8.5625 9.859375 -8.539062 9.921875 -8.5 C 9.984375 -8.46875 10.015625 -8.394531 10.015625 -8.28125 C 10.015625 -8.226562 10.003906 -8.171875 9.984375 -8.109375 Z M 9.984375 -8.109375 "/></g></g></g><g fill="#ffffff" fill-opacity="1"><g transform="translate(247.011899, 342.445818)"><g><path d="M 1.671875 0.515625 C 1.597656 0.492188 1.546875 0.453125 1.515625 0.390625 C 1.484375 0.335938 1.46875 0.273438 1.46875 0.203125 C 1.46875 0.148438 1.476562 0.0976562 1.5 0.046875 L 2.703125 -2.25 C 2.710938 -2.269531 2.722656 -2.367188 2.734375 -2.546875 C 2.753906 -2.722656 2.773438 -2.941406 2.796875 -3.203125 C 2.816406 -3.472656 2.835938 -3.769531 2.859375 -4.09375 C 2.878906 -4.414062 2.898438 -4.734375 2.921875 -5.046875 C 2.953125 -5.367188 2.976562 -5.675781 3 -5.96875 C 3.019531 -6.257812 3.039062 -6.503906 3.0625 -6.703125 C 3.070312 -6.773438 3.082031 -6.890625 3.09375 -7.046875 C 3.101562 -7.210938 3.113281 -7.398438 3.125 -7.609375 C 3.144531 -7.816406 3.164062 -8.039062 3.1875 -8.28125 C 3.207031 -8.519531 3.226562 -8.757812 3.25 -9 L 3.375 -11.046875 C 3.195312 -11.003906 3.015625 -10.960938 2.828125 -10.921875 C 2.640625 -10.878906 2.457031 -10.84375 2.28125 -10.8125 C 2.101562 -10.78125 1.929688 -10.75 1.765625 -10.71875 C 1.609375 -10.695312 1.472656 -10.6875 1.359375 -10.6875 C 1.285156 -10.6875 1.226562 -10.71875 1.1875 -10.78125 C 1.15625 -10.851562 1.140625 -10.925781 1.140625 -11 C 1.140625 -11.082031 1.160156 -11.144531 1.203125 -11.1875 L 3.6875 -13.5 C 3.882812 -13.675781 4.082031 -13.820312 4.28125 -13.9375 C 4.476562 -14.050781 4.71875 -14.140625 5 -14.203125 C 5.28125 -14.273438 5.625 -14.320312 6.03125 -14.34375 C 6.4375 -14.363281 6.953125 -14.375 7.578125 -14.375 C 8.648438 -14.375 9.597656 -14.265625 10.421875 -14.046875 C 11.242188 -13.828125 11.941406 -13.507812 12.515625 -13.09375 C 12.941406 -12.800781 13.320312 -12.492188 13.65625 -12.171875 C 13.988281 -11.859375 14.265625 -11.503906 14.484375 -11.109375 C 14.710938 -10.722656 14.882812 -10.296875 15 -9.828125 C 15.125 -9.367188 15.1875 -8.847656 15.1875 -8.265625 C 15.1875 -7.148438 15.019531 -6.160156 14.6875 -5.296875 C 14.351562 -4.429688 13.898438 -3.671875 13.328125 -3.015625 C 12.753906 -2.367188 12.082031 -1.820312 11.3125 -1.375 C 10.550781 -0.925781 9.734375 -0.5625 8.859375 -0.28125 C 7.992188 0 7.097656 0.203125 6.171875 0.328125 C 5.242188 0.453125 4.335938 0.515625 3.453125 0.515625 Z M 7.34375 -11.25 L 7.234375 -10.0625 C 7.191406 -9.65625 7.148438 -9.21875 7.109375 -8.75 C 7.066406 -8.289062 7.023438 -7.820312 6.984375 -7.34375 C 6.941406 -6.863281 6.898438 -6.390625 6.859375 -5.921875 C 6.828125 -5.453125 6.789062 -5.015625 6.75 -4.609375 C 6.71875 -4.210938 6.6875 -3.851562 6.65625 -3.53125 C 6.632812 -3.21875 6.617188 -2.96875 6.609375 -2.78125 L 6.578125 -2.484375 C 7.359375 -2.484375 8.019531 -2.609375 8.5625 -2.859375 C 9.113281 -3.117188 9.554688 -3.46875 9.890625 -3.90625 C 10.234375 -4.351562 10.476562 -4.875 10.625 -5.46875 C 10.78125 -6.070312 10.859375 -6.71875 10.859375 -7.40625 C 10.859375 -7.90625 10.789062 -8.382812 10.65625 -8.84375 C 10.519531 -9.300781 10.320312 -9.738281 10.0625 -10.15625 C 9.800781 -10.570312 9.476562 -10.882812 9.09375 -11.09375 C 8.71875 -11.300781 8.296875 -11.40625 7.828125 -11.40625 C 7.742188 -11.40625 7.65625 -11.382812 7.5625 -11.34375 C 7.476562 -11.3125 7.40625 -11.28125 7.34375 -11.25 Z M 7.34375 -11.25 "/></g></g></g><g fill="#ffffff" fill-opacity="1"><g transform="translate(263.684155, 342.445818)"><g><path d="M 1.359375 0.3125 L 1.84375 -6.375 C 2.007812 -8.613281 2.128906 -10.253906 2.203125 -11.296875 C 2.285156 -12.347656 2.328125 -12.867188 2.328125 -12.859375 C 2.328125 -12.972656 2.332031 -13.066406 2.34375 -13.140625 C 2.351562 -13.222656 2.363281 -13.289062 2.375 -13.34375 C 2.394531 -13.394531 2.421875 -13.429688 2.453125 -13.453125 C 2.492188 -13.484375 2.546875 -13.507812 2.609375 -13.53125 L 5.984375 -14.34375 C 6.066406 -14.363281 6.15625 -14.375 6.25 -14.375 C 6.34375 -14.375 6.40625 -14.34375 6.4375 -14.28125 C 6.46875 -14.226562 6.484375 -14.117188 6.484375 -13.953125 C 6.441406 -13.546875 6.40625 -13.164062 6.375 -12.8125 C 6.351562 -12.46875 6.332031 -12.132812 6.3125 -11.8125 C 6.300781 -11.5 6.285156 -11.191406 6.265625 -10.890625 C 6.253906 -10.597656 6.238281 -10.304688 6.21875 -10.015625 C 6.175781 -9.691406 6.140625 -9.367188 6.109375 -9.046875 C 6.085938 -8.734375 6.0625 -8.40625 6.03125 -8.0625 C 6.007812 -7.71875 5.984375 -7.351562 5.953125 -6.96875 C 5.921875 -6.59375 5.882812 -6.179688 5.84375 -5.734375 L 5.421875 -0.59375 C 5.410156 -0.53125 5.394531 -0.46875 5.375 -0.40625 C 5.363281 -0.351562 5.320312 -0.3125 5.25 -0.28125 C 5.25 -0.28125 5.210938 -0.265625 5.140625 -0.234375 C 5.066406 -0.210938 4.96875 -0.179688 4.84375 -0.140625 C 4.726562 -0.0976562 4.59375 -0.0507812 4.4375 0 C 4.28125 0.0390625 4.117188 0.0820312 3.953125 0.125 C 3.648438 0.1875 3.390625 0.25 3.171875 0.3125 C 2.960938 0.375 2.769531 0.429688 2.59375 0.484375 C 2.425781 0.546875 2.269531 0.59375 2.125 0.625 C 1.988281 0.65625 1.847656 0.671875 1.703125 0.671875 C 1.597656 0.671875 1.515625 0.644531 1.453125 0.59375 C 1.390625 0.539062 1.359375 0.445312 1.359375 0.3125 Z M 1.359375 0.3125 "/></g></g></g><g fill="#ffffff" fill-opacity="1"><g transform="translate(271.805065, 342.445818)"><g><path d="M 0.65625 -0.71875 C 0.738281 -0.882812 0.828125 -1.070312 0.921875 -1.28125 C 1.015625 -1.5 1.097656 -1.726562 1.171875 -1.96875 L 1.4375 -2.625 C 1.320312 -2.789062 1.203125 -2.976562 1.078125 -3.1875 C 0.960938 -3.394531 0.851562 -3.601562 0.75 -3.8125 C 0.65625 -4.03125 0.578125 -4.242188 0.515625 -4.453125 C 0.453125 -4.671875 0.421875 -4.882812 0.421875 -5.09375 C 0.421875 -5.101562 0.46875 -5.113281 0.5625 -5.125 C 0.664062 -5.132812 0.796875 -5.140625 0.953125 -5.140625 C 1.109375 -5.148438 1.273438 -5.15625 1.453125 -5.15625 C 1.628906 -5.164062 1.789062 -5.171875 1.9375 -5.171875 C 2.09375 -5.171875 2.222656 -5.171875 2.328125 -5.171875 C 2.429688 -5.179688 2.484375 -5.1875 2.484375 -5.1875 C 2.628906 -5.570312 2.773438 -5.941406 2.921875 -6.296875 C 3.066406 -6.648438 3.207031 -7.003906 3.34375 -7.359375 C 3.488281 -7.722656 3.632812 -8.09375 3.78125 -8.46875 C 3.925781 -8.84375 4.066406 -9.242188 4.203125 -9.671875 C 4.484375 -10.472656 4.753906 -11.179688 5.015625 -11.796875 C 5.273438 -12.410156 5.519531 -12.976562 5.75 -13.5 C 5.769531 -13.570312 5.8125 -13.632812 5.875 -13.6875 C 5.9375 -13.738281 6.003906 -13.785156 6.078125 -13.828125 C 6.148438 -13.867188 6.21875 -13.898438 6.28125 -13.921875 C 6.351562 -13.953125 6.410156 -13.972656 6.453125 -13.984375 C 6.472656 -13.992188 6.566406 -14.023438 6.734375 -14.078125 C 6.910156 -14.128906 7.109375 -14.179688 7.328125 -14.234375 C 7.554688 -14.296875 7.78125 -14.347656 8 -14.390625 C 8.21875 -14.441406 8.390625 -14.46875 8.515625 -14.46875 L 8.6875 -14.46875 C 8.789062 -14.46875 8.890625 -14.441406 8.984375 -14.390625 C 9.078125 -14.335938 9.144531 -14.242188 9.1875 -14.109375 C 9.5 -13.304688 9.832031 -12.429688 10.1875 -11.484375 C 10.539062 -10.535156 10.882812 -9.488281 11.21875 -8.34375 C 11.40625 -7.738281 11.582031 -7.160156 11.75 -6.609375 C 11.925781 -6.066406 12.101562 -5.535156 12.28125 -5.015625 C 12.457031 -4.492188 12.632812 -3.972656 12.8125 -3.453125 C 13 -2.929688 13.1875 -2.394531 13.375 -1.84375 C 13.425781 -1.601562 13.484375 -1.414062 13.546875 -1.28125 C 13.609375 -1.144531 13.664062 -1.035156 13.71875 -0.953125 C 13.769531 -0.878906 13.8125 -0.820312 13.84375 -0.78125 C 13.875 -0.75 13.890625 -0.710938 13.890625 -0.671875 C 13.890625 -0.628906 13.832031 -0.59375 13.71875 -0.5625 L 11.609375 0.125 C 11.453125 0.1875 11.289062 0.242188 11.125 0.296875 C 10.96875 0.359375 10.816406 0.410156 10.671875 0.453125 C 10.523438 0.503906 10.398438 0.539062 10.296875 0.5625 C 10.191406 0.59375 10.113281 0.609375 10.0625 0.609375 L 10.015625 0.609375 C 9.921875 0.609375 9.851562 0.582031 9.8125 0.53125 C 9.769531 0.476562 9.742188 0.425781 9.734375 0.375 C 9.671875 0.15625 9.601562 -0.0351562 9.53125 -0.203125 C 9.46875 -0.378906 9.40625 -0.550781 9.34375 -0.71875 C 9.289062 -0.894531 9.234375 -1.082031 9.171875 -1.28125 C 9.109375 -1.476562 9.046875 -1.707031 8.984375 -1.96875 C 8.972656 -2 8.9375 -2.023438 8.875 -2.046875 C 8.820312 -2.078125 8.753906 -2.097656 8.671875 -2.109375 C 8.585938 -2.117188 8.5 -2.125 8.40625 -2.125 C 8.3125 -2.132812 8.226562 -2.140625 8.15625 -2.140625 C 7.90625 -2.140625 7.703125 -2.132812 7.546875 -2.125 C 7.398438 -2.125 7.265625 -2.125 7.140625 -2.125 C 7.023438 -2.125 6.914062 -2.117188 6.8125 -2.109375 C 6.707031 -2.109375 6.578125 -2.109375 6.421875 -2.109375 C 6.234375 -2.109375 6.035156 -2.109375 5.828125 -2.109375 C 5.628906 -2.117188 5.453125 -2.125 5.296875 -2.125 L 4.734375 -2.15625 C 4.566406 -1.6875 4.394531 -1.242188 4.21875 -0.828125 C 4.050781 -0.421875 3.875 0 3.6875 0.4375 C 3.664062 0.488281 3.628906 0.53125 3.578125 0.5625 C 3.535156 0.59375 3.488281 0.609375 3.4375 0.609375 C 3.394531 0.609375 3.375 0.609375 3.375 0.609375 C 2.738281 0.378906 2.207031 0.15625 1.78125 -0.0625 C 1.351562 -0.289062 0.976562 -0.507812 0.65625 -0.71875 Z M 7.234375 -9.5 C 7.078125 -8.914062 6.921875 -8.382812 6.765625 -7.90625 C 6.617188 -7.4375 6.476562 -7.019531 6.34375 -6.65625 C 6.21875 -6.289062 6.109375 -5.984375 6.015625 -5.734375 C 5.929688 -5.484375 5.867188 -5.289062 5.828125 -5.15625 L 5.828125 -5.0625 C 5.828125 -5.03125 5.828125 -5.003906 5.828125 -4.984375 L 8.171875 -4.984375 C 8.097656 -5.304688 8.019531 -5.628906 7.9375 -5.953125 C 7.851562 -6.285156 7.769531 -6.628906 7.6875 -6.984375 C 7.613281 -7.335938 7.535156 -7.71875 7.453125 -8.125 C 7.378906 -8.539062 7.304688 -9 7.234375 -9.5 Z M 7.234375 -9.5 "/></g></g></g><g fill="#ffffff" fill-opacity="1"><g transform="translate(286.934954, 342.445818)"><g><path d="M 3.5 0.3125 C 3.53125 -0.164062 3.5625 -0.625 3.59375 -1.0625 C 3.625 -1.507812 3.65625 -1.941406 3.6875 -2.359375 L 4.03125 -6.96875 C 4.070312 -7.3125 4.101562 -7.628906 4.125 -7.921875 C 4.15625 -8.210938 4.175781 -8.492188 4.1875 -8.765625 C 4.207031 -9.046875 4.222656 -9.328125 4.234375 -9.609375 C 4.253906 -9.898438 4.273438 -10.21875 4.296875 -10.5625 C 4.078125 -10.5625 3.847656 -10.5625 3.609375 -10.5625 C 3.378906 -10.5625 3.132812 -10.5625 2.875 -10.5625 L 0.984375 -10.5625 C 0.910156 -10.5625 0.863281 -10.585938 0.84375 -10.640625 C 0.832031 -10.703125 0.828125 -10.753906 0.828125 -10.796875 L 0.828125 -10.875 L 1.90625 -13.6875 L 1.890625 -13.734375 C 1.890625 -13.765625 1.910156 -13.789062 1.953125 -13.8125 C 1.992188 -13.832031 2.09375 -13.851562 2.25 -13.875 C 3.144531 -13.925781 4.015625 -13.972656 4.859375 -14.015625 C 5.703125 -14.066406 6.535156 -14.109375 7.359375 -14.140625 C 8.179688 -14.179688 9.003906 -14.222656 9.828125 -14.265625 C 10.648438 -14.304688 11.5 -14.34375 12.375 -14.375 C 12.445312 -14.375 12.523438 -14.363281 12.609375 -14.34375 C 12.703125 -14.320312 12.75 -14.25 12.75 -14.125 C 12.75 -14.113281 12.742188 -14.101562 12.734375 -14.09375 C 12.734375 -14.082031 12.734375 -14.066406 12.734375 -14.046875 C 12.628906 -13.785156 12.53125 -13.535156 12.4375 -13.296875 C 12.351562 -13.054688 12.269531 -12.816406 12.1875 -12.578125 C 12.101562 -12.347656 12.015625 -12.109375 11.921875 -11.859375 C 11.835938 -11.617188 11.742188 -11.367188 11.640625 -11.109375 C 11.628906 -11.097656 11.613281 -11.0625 11.59375 -11 C 11.582031 -10.945312 11.554688 -10.882812 11.515625 -10.8125 C 11.472656 -10.75 11.421875 -10.6875 11.359375 -10.625 C 11.296875 -10.570312 11.210938 -10.539062 11.109375 -10.53125 C 11.078125 -10.539062 11.046875 -10.546875 11.015625 -10.546875 C 10.984375 -10.546875 10.945312 -10.546875 10.90625 -10.546875 L 8.296875 -10.546875 C 8.265625 -10.210938 8.234375 -9.859375 8.203125 -9.484375 C 8.179688 -9.117188 8.148438 -8.757812 8.109375 -8.40625 L 7.390625 -0.78125 C 7.390625 -0.71875 7.378906 -0.65625 7.359375 -0.59375 C 7.335938 -0.539062 7.296875 -0.503906 7.234375 -0.484375 L 4.46875 0.515625 C 4.394531 0.546875 4.296875 0.578125 4.171875 0.609375 C 4.054688 0.648438 3.945312 0.671875 3.84375 0.671875 C 3.75 0.671875 3.664062 0.644531 3.59375 0.59375 C 3.53125 0.550781 3.5 0.472656 3.5 0.359375 Z M 3.5 0.3125 "/></g></g></g><g fill="#ffffff" fill-opacity="1"><g transform="translate(299.848924, 342.445818)"><g><path d="M 1.359375 0.3125 L 1.84375 -6.375 C 2.007812 -8.613281 2.128906 -10.253906 2.203125 -11.296875 C 2.285156 -12.347656 2.328125 -12.867188 2.328125 -12.859375 C 2.328125 -12.972656 2.332031 -13.066406 2.34375 -13.140625 C 2.351562 -13.222656 2.363281 -13.289062 2.375 -13.34375 C 2.394531 -13.394531 2.421875 -13.429688 2.453125 -13.453125 C 2.492188 -13.484375 2.546875 -13.507812 2.609375 -13.53125 L 5.984375 -14.34375 C 6.066406 -14.363281 6.15625 -14.375 6.25 -14.375 C 6.34375 -14.375 6.40625 -14.34375 6.4375 -14.28125 C 6.46875 -14.226562 6.484375 -14.117188 6.484375 -13.953125 C 6.441406 -13.546875 6.40625 -13.164062 6.375 -12.8125 C 6.351562 -12.46875 6.332031 -12.132812 6.3125 -11.8125 C 6.300781 -11.5 6.285156 -11.191406 6.265625 -10.890625 C 6.253906 -10.597656 6.238281 -10.304688 6.21875 -10.015625 C 6.175781 -9.691406 6.140625 -9.367188 6.109375 -9.046875 C 6.085938 -8.734375 6.0625 -8.40625 6.03125 -8.0625 C 6.007812 -7.71875 5.984375 -7.351562 5.953125 -6.96875 C 5.921875 -6.59375 5.882812 -6.179688 5.84375 -5.734375 L 5.421875 -0.59375 C 5.410156 -0.53125 5.394531 -0.46875 5.375 -0.40625 C 5.363281 -0.351562 5.320312 -0.3125 5.25 -0.28125 C 5.25 -0.28125 5.210938 -0.265625 5.140625 -0.234375 C 5.066406 -0.210938 4.96875 -0.179688 4.84375 -0.140625 C 4.726562 -0.0976562 4.59375 -0.0507812 4.4375 0 C 4.28125 0.0390625 4.117188 0.0820312 3.953125 0.125 C 3.648438 0.1875 3.390625 0.25 3.171875 0.3125 C 2.960938 0.375 2.769531 0.429688 2.59375 0.484375 C 2.425781 0.546875 2.269531 0.59375 2.125 0.625 C 1.988281 0.65625 1.847656 0.671875 1.703125 0.671875 C 1.597656 0.671875 1.515625 0.644531 1.453125 0.59375 C 1.390625 0.539062 1.359375 0.445312 1.359375 0.3125 Z M 1.359375 0.3125 "/></g></g></g><g fill="#ffffff" fill-opacity="1"><g transform="translate(307.969834, 342.445818)"><g><path d="M 5.484375 -6.65625 C 5.484375 -6.1875 5.53125 -5.71875 5.625 -5.25 C 5.726562 -4.78125 5.894531 -4.351562 6.125 -3.96875 C 6.363281 -3.59375 6.675781 -3.285156 7.0625 -3.046875 C 7.445312 -2.816406 7.921875 -2.703125 8.484375 -2.703125 C 8.921875 -2.734375 9.300781 -2.820312 9.625 -2.96875 C 9.957031 -3.125 10.242188 -3.320312 10.484375 -3.5625 C 10.722656 -3.8125 10.921875 -4.09375 11.078125 -4.40625 C 11.234375 -4.726562 11.351562 -5.0625 11.4375 -5.40625 C 11.53125 -5.75 11.59375 -6.101562 11.625 -6.46875 C 11.664062 -6.832031 11.6875 -7.1875 11.6875 -7.53125 C 11.6875 -7.988281 11.625 -8.429688 11.5 -8.859375 C 11.375 -9.296875 11.1875 -9.679688 10.9375 -10.015625 C 10.695312 -10.347656 10.390625 -10.613281 10.015625 -10.8125 C 9.648438 -11.019531 9.222656 -11.125 8.734375 -11.125 C 8.359375 -11.125 8.015625 -11.050781 7.703125 -10.90625 C 7.390625 -10.757812 7.113281 -10.566406 6.875 -10.328125 C 6.632812 -10.097656 6.425781 -9.828125 6.25 -9.515625 C 6.082031 -9.203125 5.941406 -8.878906 5.828125 -8.546875 C 5.710938 -8.222656 5.625 -7.894531 5.5625 -7.5625 C 5.507812 -7.238281 5.484375 -6.9375 5.484375 -6.65625 Z M 7.390625 0.515625 C 6.410156 0.515625 5.535156 0.332031 4.765625 -0.03125 C 3.992188 -0.40625 3.34375 -0.898438 2.8125 -1.515625 C 2.28125 -2.140625 1.875 -2.859375 1.59375 -3.671875 C 1.3125 -4.492188 1.171875 -5.359375 1.171875 -6.265625 C 1.171875 -7.285156 1.316406 -8.226562 1.609375 -9.09375 C 1.898438 -9.957031 2.304688 -10.722656 2.828125 -11.390625 C 3.347656 -12.054688 3.96875 -12.617188 4.6875 -13.078125 C 5.40625 -13.535156 6.191406 -13.878906 7.046875 -14.109375 C 7.128906 -14.109375 7.191406 -14.164062 7.234375 -14.28125 C 7.273438 -14.40625 7.3125 -14.539062 7.34375 -14.6875 C 7.375 -14.84375 7.410156 -14.984375 7.453125 -15.109375 C 7.503906 -15.234375 7.570312 -15.296875 7.65625 -15.296875 C 8.914062 -15.160156 10.050781 -14.9375 11.0625 -14.625 C 12.070312 -14.3125 12.925781 -13.859375 13.625 -13.265625 C 14.332031 -12.679688 14.875 -11.941406 15.25 -11.046875 C 15.625 -10.148438 15.8125 -9.0625 15.8125 -7.78125 C 15.8125 -6.945312 15.707031 -6.164062 15.5 -5.4375 C 15.300781 -4.707031 15.019531 -4.035156 14.65625 -3.421875 C 14.289062 -2.804688 13.851562 -2.253906 13.34375 -1.765625 C 12.832031 -1.285156 12.265625 -0.875 11.640625 -0.53125 C 11.015625 -0.195312 10.34375 0.0546875 9.625 0.234375 C 8.90625 0.421875 8.160156 0.515625 7.390625 0.515625 Z M 7.390625 0.515625 "/></g></g></g><g fill="#ffffff" fill-opacity="1"><g transform="translate(325.34494, 342.445818)"><g><path d="M 9.671875 -13.09375 C 9.722656 -13.300781 9.769531 -13.453125 9.8125 -13.546875 C 9.851562 -13.648438 9.9375 -13.71875 10.0625 -13.75 L 12.59375 -14.34375 C 12.675781 -14.375 12.765625 -14.390625 12.859375 -14.390625 C 12.941406 -14.390625 13 -14.359375 13.03125 -14.296875 C 13.070312 -14.234375 13.09375 -14.125 13.09375 -13.96875 C 13.050781 -13.8125 13.015625 -13.570312 12.984375 -13.25 C 12.960938 -12.925781 12.945312 -12.570312 12.9375 -12.1875 C 12.925781 -11.800781 12.914062 -11.414062 12.90625 -11.03125 C 12.90625 -10.644531 12.90625 -10.304688 12.90625 -10.015625 L 12.90625 -9.484375 C 12.90625 -9.078125 12.898438 -8.632812 12.890625 -8.15625 C 12.878906 -7.6875 12.867188 -7.207031 12.859375 -6.71875 C 12.859375 -6.226562 12.847656 -5.742188 12.828125 -5.265625 C 12.816406 -4.796875 12.804688 -4.351562 12.796875 -3.9375 L 12.734375 -2.265625 C 12.722656 -2.234375 12.71875 -2.203125 12.71875 -2.171875 C 12.71875 -2.148438 12.71875 -2.125 12.71875 -2.09375 L 12.71875 -1.953125 C 12.71875 -1.835938 12.71875 -1.742188 12.71875 -1.671875 C 12.726562 -1.597656 12.734375 -1.53125 12.734375 -1.46875 C 12.734375 -1.40625 12.726562 -1.347656 12.71875 -1.296875 C 12.707031 -1.242188 12.679688 -1.191406 12.640625 -1.140625 C 12.609375 -1.097656 12.554688 -1.050781 12.484375 -1 C 12.421875 -0.945312 12.328125 -0.878906 12.203125 -0.796875 C 12.140625 -0.753906 12.03125 -0.6875 11.875 -0.59375 C 11.726562 -0.507812 11.5625 -0.410156 11.375 -0.296875 C 11.195312 -0.191406 11.007812 -0.0820312 10.8125 0.03125 C 10.625 0.15625 10.445312 0.265625 10.28125 0.359375 C 10.125 0.453125 9.992188 0.523438 9.890625 0.578125 C 9.785156 0.640625 9.734375 0.671875 9.734375 0.671875 L 5.203125 -6.296875 L 4.796875 -0.59375 C 4.785156 -0.539062 4.769531 -0.484375 4.75 -0.421875 C 4.738281 -0.359375 4.695312 -0.3125 4.625 -0.28125 C 4.570312 -0.257812 4.472656 -0.21875 4.328125 -0.15625 C 4.179688 -0.101562 4.007812 -0.0390625 3.8125 0.03125 C 3.625 0.101562 3.425781 0.175781 3.21875 0.25 C 3.007812 0.320312 2.804688 0.390625 2.609375 0.453125 C 2.421875 0.515625 2.253906 0.566406 2.109375 0.609375 C 1.960938 0.648438 1.863281 0.671875 1.8125 0.671875 C 1.71875 0.671875 1.632812 0.644531 1.5625 0.59375 C 1.5 0.539062 1.46875 0.441406 1.46875 0.296875 C 1.539062 -0.515625 1.617188 -1.398438 1.703125 -2.359375 C 1.785156 -3.316406 1.863281 -4.300781 1.9375 -5.3125 C 2.019531 -6.320312 2.09375 -7.328125 2.15625 -8.328125 C 2.226562 -9.335938 2.285156 -10.296875 2.328125 -11.203125 C 2.328125 -11.222656 2.285156 -11.304688 2.203125 -11.453125 C 2.128906 -11.609375 2.039062 -11.769531 1.9375 -11.9375 C 1.832031 -12.113281 1.738281 -12.273438 1.65625 -12.421875 C 1.582031 -12.578125 1.546875 -12.675781 1.546875 -12.71875 C 1.546875 -12.757812 1.566406 -12.800781 1.609375 -12.84375 C 1.660156 -12.882812 1.742188 -12.9375 1.859375 -13 L 4.46875 -14.46875 C 4.488281 -14.46875 4.515625 -14.472656 4.546875 -14.484375 C 4.578125 -14.492188 4.609375 -14.5 4.640625 -14.5 C 4.710938 -14.5 4.769531 -14.488281 4.8125 -14.46875 C 4.851562 -14.445312 4.894531 -14.394531 4.9375 -14.3125 L 9.671875 -5.765625 Z M 9.671875 -13.09375 "/></g></g></g><g fill="#ffffff" fill-opacity="1"><g transform="translate(340.404471, 342.445818)"><g/></g></g><g fill="#ffffff" fill-opacity="1"><g transform="translate(144.455265, 370.195816)"><g><path d="M 13.6875 -10.140625 C 13.675781 -9.585938 13.617188 -9.085938 13.515625 -8.640625 C 13.421875 -8.203125 13.28125 -7.804688 13.09375 -7.453125 C 12.90625 -7.097656 12.675781 -6.773438 12.40625 -6.484375 C 12.144531 -6.203125 11.847656 -5.9375 11.515625 -5.6875 C 10.859375 -5.21875 10.144531 -4.863281 9.375 -4.625 C 8.601562 -4.394531 7.828125 -4.28125 7.046875 -4.28125 C 6.910156 -4.28125 6.78125 -4.28125 6.65625 -4.28125 C 6.53125 -4.289062 6.398438 -4.300781 6.265625 -4.3125 L 5.953125 -0.75 L 5.78125 -0.453125 C 5.769531 -0.421875 5.660156 -0.363281 5.453125 -0.28125 C 5.242188 -0.207031 4.984375 -0.117188 4.671875 -0.015625 L 4.046875 0.1875 C 3.859375 0.257812 3.6875 0.320312 3.53125 0.375 C 3.382812 0.4375 3.242188 0.488281 3.109375 0.53125 C 2.984375 0.582031 2.859375 0.617188 2.734375 0.640625 C 2.609375 0.660156 2.476562 0.671875 2.34375 0.671875 C 2.25 0.671875 2.175781 0.644531 2.125 0.59375 C 2.070312 0.550781 2.046875 0.46875 2.046875 0.34375 L 2.15625 -1.328125 C 2.175781 -1.660156 2.203125 -1.992188 2.234375 -2.328125 C 2.265625 -2.660156 2.289062 -3.046875 2.3125 -3.484375 L 2.5 -5.8125 C 2.539062 -6.289062 2.578125 -6.765625 2.609375 -7.234375 C 2.640625 -7.710938 2.671875 -8.164062 2.703125 -8.59375 C 2.734375 -9.019531 2.757812 -9.421875 2.78125 -9.796875 C 2.8125 -10.171875 2.835938 -10.5 2.859375 -10.78125 C 2.503906 -10.707031 2.222656 -10.648438 2.015625 -10.609375 C 1.804688 -10.578125 1.644531 -10.5625 1.53125 -10.5625 C 1.394531 -10.5625 1.328125 -10.617188 1.328125 -10.734375 C 1.421875 -11.054688 1.503906 -11.367188 1.578125 -11.671875 C 1.648438 -11.929688 1.722656 -12.195312 1.796875 -12.46875 C 1.878906 -12.75 1.945312 -12.984375 2 -13.171875 C 2.03125 -13.285156 2.066406 -13.375 2.109375 -13.4375 C 2.148438 -13.5 2.203125 -13.546875 2.265625 -13.578125 C 2.335938 -13.617188 2.425781 -13.65625 2.53125 -13.6875 C 2.644531 -13.71875 2.78125 -13.757812 2.9375 -13.8125 C 3.050781 -13.851562 3.222656 -13.894531 3.453125 -13.9375 C 3.679688 -13.988281 3.9375 -14.035156 4.21875 -14.078125 C 4.507812 -14.128906 4.820312 -14.175781 5.15625 -14.21875 C 5.5 -14.269531 5.84375 -14.3125 6.1875 -14.34375 C 6.539062 -14.382812 6.882812 -14.414062 7.21875 -14.4375 C 7.5625 -14.457031 7.882812 -14.46875 8.1875 -14.46875 C 8.925781 -14.46875 9.628906 -14.398438 10.296875 -14.265625 C 10.960938 -14.128906 11.546875 -13.894531 12.046875 -13.5625 C 12.546875 -13.238281 12.941406 -12.796875 13.234375 -12.234375 C 13.535156 -11.679688 13.6875 -10.984375 13.6875 -10.140625 Z M 6.546875 -7.21875 C 6.546875 -7.144531 6.554688 -7.078125 6.578125 -7.015625 C 6.609375 -6.960938 6.679688 -6.9375 6.796875 -6.9375 C 6.984375 -6.9375 7.203125 -6.976562 7.453125 -7.0625 C 7.703125 -7.144531 7.953125 -7.265625 8.203125 -7.421875 C 8.453125 -7.585938 8.679688 -7.789062 8.890625 -8.03125 C 9.109375 -8.28125 9.273438 -8.566406 9.390625 -8.890625 C 9.429688 -9.015625 9.46875 -9.175781 9.5 -9.375 C 9.53125 -9.582031 9.546875 -9.820312 9.546875 -10.09375 C 9.546875 -10.550781 9.382812 -10.882812 9.0625 -11.09375 C 8.75 -11.3125 8.335938 -11.421875 7.828125 -11.421875 C 7.742188 -11.421875 7.648438 -11.414062 7.546875 -11.40625 C 7.441406 -11.394531 7.335938 -11.375 7.234375 -11.34375 C 7.140625 -11.320312 7.0625 -11.296875 7 -11.265625 C 6.9375 -11.234375 6.898438 -11.1875 6.890625 -11.125 L 6.875 -10.90625 C 6.863281 -10.820312 6.847656 -10.679688 6.828125 -10.484375 C 6.816406 -10.296875 6.796875 -10.078125 6.765625 -9.828125 C 6.742188 -9.585938 6.722656 -9.328125 6.703125 -9.046875 C 6.679688 -8.773438 6.660156 -8.515625 6.640625 -8.265625 C 6.617188 -8.023438 6.597656 -7.804688 6.578125 -7.609375 C 6.554688 -7.421875 6.546875 -7.289062 6.546875 -7.21875 Z M 6.546875 -7.21875 "/></g></g></g><g fill="#ffffff" fill-opacity="1"><g transform="translate(159.155639, 370.195816)"><g><path d="M 5.484375 -6.65625 C 5.484375 -6.1875 5.53125 -5.71875 5.625 -5.25 C 5.726562 -4.78125 5.894531 -4.351562 6.125 -3.96875 C 6.363281 -3.59375 6.675781 -3.285156 7.0625 -3.046875 C 7.445312 -2.816406 7.921875 -2.703125 8.484375 -2.703125 C 8.921875 -2.734375 9.300781 -2.820312 9.625 -2.96875 C 9.957031 -3.125 10.242188 -3.320312 10.484375 -3.5625 C 10.722656 -3.8125 10.921875 -4.09375 11.078125 -4.40625 C 11.234375 -4.726562 11.351562 -5.0625 11.4375 -5.40625 C 11.53125 -5.75 11.59375 -6.101562 11.625 -6.46875 C 11.664062 -6.832031 11.6875 -7.1875 11.6875 -7.53125 C 11.6875 -7.988281 11.625 -8.429688 11.5 -8.859375 C 11.375 -9.296875 11.1875 -9.679688 10.9375 -10.015625 C 10.695312 -10.347656 10.390625 -10.613281 10.015625 -10.8125 C 9.648438 -11.019531 9.222656 -11.125 8.734375 -11.125 C 8.359375 -11.125 8.015625 -11.050781 7.703125 -10.90625 C 7.390625 -10.757812 7.113281 -10.566406 6.875 -10.328125 C 6.632812 -10.097656 6.425781 -9.828125 6.25 -9.515625 C 6.082031 -9.203125 5.941406 -8.878906 5.828125 -8.546875 C 5.710938 -8.222656 5.625 -7.894531 5.5625 -7.5625 C 5.507812 -7.238281 5.484375 -6.9375 5.484375 -6.65625 Z M 7.390625 0.515625 C 6.410156 0.515625 5.535156 0.332031 4.765625 -0.03125 C 3.992188 -0.40625 3.34375 -0.898438 2.8125 -1.515625 C 2.28125 -2.140625 1.875 -2.859375 1.59375 -3.671875 C 1.3125 -4.492188 1.171875 -5.359375 1.171875 -6.265625 C 1.171875 -7.285156 1.316406 -8.226562 1.609375 -9.09375 C 1.898438 -9.957031 2.304688 -10.722656 2.828125 -11.390625 C 3.347656 -12.054688 3.96875 -12.617188 4.6875 -13.078125 C 5.40625 -13.535156 6.191406 -13.878906 7.046875 -14.109375 C 7.128906 -14.109375 7.191406 -14.164062 7.234375 -14.28125 C 7.273438 -14.40625 7.3125 -14.539062 7.34375 -14.6875 C 7.375 -14.84375 7.410156 -14.984375 7.453125 -15.109375 C 7.503906 -15.234375 7.570312 -15.296875 7.65625 -15.296875 C 8.914062 -15.160156 10.050781 -14.9375 11.0625 -14.625 C 12.070312 -14.3125 12.925781 -13.859375 13.625 -13.265625 C 14.332031 -12.679688 14.875 -11.941406 15.25 -11.046875 C 15.625 -10.148438 15.8125 -9.0625 15.8125 -7.78125 C 15.8125 -6.945312 15.707031 -6.164062 15.5 -5.4375 C 15.300781 -4.707031 15.019531 -4.035156 14.65625 -3.421875 C 14.289062 -2.804688 13.851562 -2.253906 13.34375 -1.765625 C 12.832031 -1.285156 12.265625 -0.875 11.640625 -0.53125 C 11.015625 -0.195312 10.34375 0.0546875 9.625 0.234375 C 8.90625 0.421875 8.160156 0.515625 7.390625 0.515625 Z M 7.390625 0.515625 "/></g></g></g><g fill="#ffffff" fill-opacity="1"><g transform="translate(176.530749, 370.195816)"><g><path d="M 6.421875 -0.78125 C 6.421875 -0.71875 6.410156 -0.660156 6.390625 -0.609375 C 6.378906 -0.554688 6.335938 -0.515625 6.265625 -0.484375 C 6.234375 -0.460938 6.101562 -0.410156 5.875 -0.328125 C 5.644531 -0.253906 5.378906 -0.160156 5.078125 -0.046875 C 4.773438 0.0546875 4.472656 0.160156 4.171875 0.265625 C 3.878906 0.378906 3.65625 0.460938 3.5 0.515625 C 3.414062 0.546875 3.316406 0.578125 3.203125 0.609375 C 3.085938 0.648438 2.976562 0.671875 2.875 0.671875 C 2.78125 0.671875 2.695312 0.644531 2.625 0.59375 C 2.5625 0.550781 2.53125 0.472656 2.53125 0.359375 C 2.53125 0.0664062 2.535156 -0.195312 2.546875 -0.4375 C 2.566406 -0.675781 2.585938 -0.925781 2.609375 -1.1875 C 2.640625 -1.445312 2.671875 -1.734375 2.703125 -2.046875 C 2.734375 -2.359375 2.757812 -2.734375 2.78125 -3.171875 C 2.8125 -3.742188 2.847656 -4.296875 2.890625 -4.828125 C 2.929688 -5.359375 2.972656 -5.910156 3.015625 -6.484375 L 3.140625 -8.15625 C 3.160156 -8.425781 3.179688 -8.703125 3.203125 -8.984375 C 3.222656 -9.273438 3.242188 -9.566406 3.265625 -9.859375 L 3.375 -11.0625 C 3.375 -11.070312 3.351562 -11.078125 3.3125 -11.078125 C 3.257812 -11.078125 3.171875 -11.0625 3.046875 -11.03125 C 2.921875 -11.007812 2.773438 -10.984375 2.609375 -10.953125 C 2.441406 -10.921875 2.253906 -10.882812 2.046875 -10.84375 C 1.835938 -10.8125 1.628906 -10.78125 1.421875 -10.75 C 1.367188 -10.75 1.316406 -10.757812 1.265625 -10.78125 C 1.210938 -10.8125 1.1875 -10.84375 1.1875 -10.875 C 1.1875 -10.894531 1.195312 -10.910156 1.21875 -10.921875 L 2.796875 -13.6875 C 3.148438 -13.769531 3.535156 -13.847656 3.953125 -13.921875 C 4.367188 -14.003906 4.8125 -14.078125 5.28125 -14.140625 C 5.757812 -14.210938 6.265625 -14.269531 6.796875 -14.3125 C 7.328125 -14.351562 7.894531 -14.375 8.5 -14.375 C 9.175781 -14.363281 9.832031 -14.296875 10.46875 -14.171875 C 11.113281 -14.054688 11.6875 -13.851562 12.1875 -13.5625 C 12.6875 -13.28125 13.085938 -12.894531 13.390625 -12.40625 C 13.691406 -11.925781 13.84375 -11.316406 13.84375 -10.578125 C 13.84375 -10.171875 13.769531 -9.789062 13.625 -9.4375 C 13.488281 -9.09375 13.3125 -8.78125 13.09375 -8.5 C 12.875 -8.226562 12.632812 -7.988281 12.375 -7.78125 C 12.113281 -7.570312 11.863281 -7.390625 11.625 -7.234375 C 11.382812 -7.085938 11.171875 -6.96875 10.984375 -6.875 C 10.804688 -6.789062 10.6875 -6.734375 10.625 -6.703125 C 10.625 -6.691406 10.628906 -6.675781 10.640625 -6.65625 C 10.648438 -6.632812 10.671875 -6.597656 10.703125 -6.546875 C 10.734375 -6.492188 10.78125 -6.414062 10.84375 -6.3125 C 10.90625 -6.207031 10.984375 -6.070312 11.078125 -5.90625 C 11.179688 -5.75 11.304688 -5.539062 11.453125 -5.28125 C 11.597656 -5.019531 11.769531 -4.707031 11.96875 -4.34375 C 12.164062 -3.988281 12.394531 -3.59375 12.65625 -3.15625 C 12.914062 -2.726562 13.21875 -2.265625 13.5625 -1.765625 C 13.664062 -1.660156 13.789062 -1.597656 13.9375 -1.578125 C 14.082031 -1.554688 14.210938 -1.539062 14.328125 -1.53125 C 14.453125 -1.53125 14.554688 -1.523438 14.640625 -1.515625 C 14.734375 -1.503906 14.78125 -1.460938 14.78125 -1.390625 C 14.78125 -1.335938 14.722656 -1.273438 14.609375 -1.203125 C 14.503906 -1.140625 14.378906 -1.070312 14.234375 -1 C 14.097656 -0.9375 13.953125 -0.867188 13.796875 -0.796875 C 13.648438 -0.734375 13.539062 -0.679688 13.46875 -0.640625 C 13.3125 -0.566406 13.144531 -0.492188 12.96875 -0.421875 C 12.800781 -0.347656 12.617188 -0.265625 12.421875 -0.171875 C 12.234375 -0.0859375 12.019531 0.0078125 11.78125 0.125 C 11.539062 0.238281 11.273438 0.378906 10.984375 0.546875 C 10.898438 0.585938 10.820312 0.617188 10.75 0.640625 C 10.6875 0.660156 10.625 0.671875 10.5625 0.671875 C 10.445312 0.671875 10.347656 0.640625 10.265625 0.578125 C 10.179688 0.523438 10.109375 0.457031 10.046875 0.375 C 9.992188 0.300781 9.945312 0.222656 9.90625 0.140625 C 9.875 0.0546875 9.84375 -0.0078125 9.8125 -0.0625 L 6.90625 -6.1875 Z M 7.015625 -7.390625 C 7.347656 -7.390625 7.691406 -7.472656 8.046875 -7.640625 C 8.410156 -7.816406 8.738281 -8.035156 9.03125 -8.296875 C 9.320312 -8.566406 9.5625 -8.867188 9.75 -9.203125 C 9.945312 -9.546875 10.046875 -9.890625 10.046875 -10.234375 C 10.046875 -11.179688 9.476562 -11.65625 8.34375 -11.65625 C 8.125 -11.65625 7.941406 -11.640625 7.796875 -11.609375 C 7.660156 -11.578125 7.53125 -11.554688 7.40625 -11.546875 Z M 7.015625 -7.390625 "/></g></g></g><g fill="#ffffff" fill-opacity="1"><g transform="translate(192.509919, 370.195816)"><g><path d="M 3.5 0.3125 C 3.53125 -0.164062 3.5625 -0.625 3.59375 -1.0625 C 3.625 -1.507812 3.65625 -1.941406 3.6875 -2.359375 L 4.03125 -6.96875 C 4.070312 -7.3125 4.101562 -7.628906 4.125 -7.921875 C 4.15625 -8.210938 4.175781 -8.492188 4.1875 -8.765625 C 4.207031 -9.046875 4.222656 -9.328125 4.234375 -9.609375 C 4.253906 -9.898438 4.273438 -10.21875 4.296875 -10.5625 C 4.078125 -10.5625 3.847656 -10.5625 3.609375 -10.5625 C 3.378906 -10.5625 3.132812 -10.5625 2.875 -10.5625 L 0.984375 -10.5625 C 0.910156 -10.5625 0.863281 -10.585938 0.84375 -10.640625 C 0.832031 -10.703125 0.828125 -10.753906 0.828125 -10.796875 L 0.828125 -10.875 L 1.90625 -13.6875 L 1.890625 -13.734375 C 1.890625 -13.765625 1.910156 -13.789062 1.953125 -13.8125 C 1.992188 -13.832031 2.09375 -13.851562 2.25 -13.875 C 3.144531 -13.925781 4.015625 -13.972656 4.859375 -14.015625 C 5.703125 -14.066406 6.535156 -14.109375 7.359375 -14.140625 C 8.179688 -14.179688 9.003906 -14.222656 9.828125 -14.265625 C 10.648438 -14.304688 11.5 -14.34375 12.375 -14.375 C 12.445312 -14.375 12.523438 -14.363281 12.609375 -14.34375 C 12.703125 -14.320312 12.75 -14.25 12.75 -14.125 C 12.75 -14.113281 12.742188 -14.101562 12.734375 -14.09375 C 12.734375 -14.082031 12.734375 -14.066406 12.734375 -14.046875 C 12.628906 -13.785156 12.53125 -13.535156 12.4375 -13.296875 C 12.351562 -13.054688 12.269531 -12.816406 12.1875 -12.578125 C 12.101562 -12.347656 12.015625 -12.109375 11.921875 -11.859375 C 11.835938 -11.617188 11.742188 -11.367188 11.640625 -11.109375 C 11.628906 -11.097656 11.613281 -11.0625 11.59375 -11 C 11.582031 -10.945312 11.554688 -10.882812 11.515625 -10.8125 C 11.472656 -10.75 11.421875 -10.6875 11.359375 -10.625 C 11.296875 -10.570312 11.210938 -10.539062 11.109375 -10.53125 C 11.078125 -10.539062 11.046875 -10.546875 11.015625 -10.546875 C 10.984375 -10.546875 10.945312 -10.546875 10.90625 -10.546875 L 8.296875 -10.546875 C 8.265625 -10.210938 8.234375 -9.859375 8.203125 -9.484375 C 8.179688 -9.117188 8.148438 -8.757812 8.109375 -8.40625 L 7.390625 -0.78125 C 7.390625 -0.71875 7.378906 -0.65625 7.359375 -0.59375 C 7.335938 -0.539062 7.296875 -0.503906 7.234375 -0.484375 L 4.46875 0.515625 C 4.394531 0.546875 4.296875 0.578125 4.171875 0.609375 C 4.054688 0.648438 3.945312 0.671875 3.84375 0.671875 C 3.75 0.671875 3.664062 0.644531 3.59375 0.59375 C 3.53125 0.550781 3.5 0.472656 3.5 0.359375 Z M 3.5 0.3125 "/></g></g></g><g fill="#ffffff" fill-opacity="1"><g transform="translate(205.423883, 370.195816)"><g><path d="M 0.65625 -0.71875 C 0.738281 -0.882812 0.828125 -1.070312 0.921875 -1.28125 C 1.015625 -1.5 1.097656 -1.726562 1.171875 -1.96875 L 1.4375 -2.625 C 1.320312 -2.789062 1.203125 -2.976562 1.078125 -3.1875 C 0.960938 -3.394531 0.851562 -3.601562 0.75 -3.8125 C 0.65625 -4.03125 0.578125 -4.242188 0.515625 -4.453125 C 0.453125 -4.671875 0.421875 -4.882812 0.421875 -5.09375 C 0.421875 -5.101562 0.46875 -5.113281 0.5625 -5.125 C 0.664062 -5.132812 0.796875 -5.140625 0.953125 -5.140625 C 1.109375 -5.148438 1.273438 -5.15625 1.453125 -5.15625 C 1.628906 -5.164062 1.789062 -5.171875 1.9375 -5.171875 C 2.09375 -5.171875 2.222656 -5.171875 2.328125 -5.171875 C 2.429688 -5.179688 2.484375 -5.1875 2.484375 -5.1875 C 2.628906 -5.570312 2.773438 -5.941406 2.921875 -6.296875 C 3.066406 -6.648438 3.207031 -7.003906 3.34375 -7.359375 C 3.488281 -7.722656 3.632812 -8.09375 3.78125 -8.46875 C 3.925781 -8.84375 4.066406 -9.242188 4.203125 -9.671875 C 4.484375 -10.472656 4.753906 -11.179688 5.015625 -11.796875 C 5.273438 -12.410156 5.519531 -12.976562 5.75 -13.5 C 5.769531 -13.570312 5.8125 -13.632812 5.875 -13.6875 C 5.9375 -13.738281 6.003906 -13.785156 6.078125 -13.828125 C 6.148438 -13.867188 6.21875 -13.898438 6.28125 -13.921875 C 6.351562 -13.953125 6.410156 -13.972656 6.453125 -13.984375 C 6.472656 -13.992188 6.566406 -14.023438 6.734375 -14.078125 C 6.910156 -14.128906 7.109375 -14.179688 7.328125 -14.234375 C 7.554688 -14.296875 7.78125 -14.347656 8 -14.390625 C 8.21875 -14.441406 8.390625 -14.46875 8.515625 -14.46875 L 8.6875 -14.46875 C 8.789062 -14.46875 8.890625 -14.441406 8.984375 -14.390625 C 9.078125 -14.335938 9.144531 -14.242188 9.1875 -14.109375 C 9.5 -13.304688 9.832031 -12.429688 10.1875 -11.484375 C 10.539062 -10.535156 10.882812 -9.488281 11.21875 -8.34375 C 11.40625 -7.738281 11.582031 -7.160156 11.75 -6.609375 C 11.925781 -6.066406 12.101562 -5.535156 12.28125 -5.015625 C 12.457031 -4.492188 12.632812 -3.972656 12.8125 -3.453125 C 13 -2.929688 13.1875 -2.394531 13.375 -1.84375 C 13.425781 -1.601562 13.484375 -1.414062 13.546875 -1.28125 C 13.609375 -1.144531 13.664062 -1.035156 13.71875 -0.953125 C 13.769531 -0.878906 13.8125 -0.820312 13.84375 -0.78125 C 13.875 -0.75 13.890625 -0.710938 13.890625 -0.671875 C 13.890625 -0.628906 13.832031 -0.59375 13.71875 -0.5625 L 11.609375 0.125 C 11.453125 0.1875 11.289062 0.242188 11.125 0.296875 C 10.96875 0.359375 10.816406 0.410156 10.671875 0.453125 C 10.523438 0.503906 10.398438 0.539062 10.296875 0.5625 C 10.191406 0.59375 10.113281 0.609375 10.0625 0.609375 L 10.015625 0.609375 C 9.921875 0.609375 9.851562 0.582031 9.8125 0.53125 C 9.769531 0.476562 9.742188 0.425781 9.734375 0.375 C 9.671875 0.15625 9.601562 -0.0351562 9.53125 -0.203125 C 9.46875 -0.378906 9.40625 -0.550781 9.34375 -0.71875 C 9.289062 -0.894531 9.234375 -1.082031 9.171875 -1.28125 C 9.109375 -1.476562 9.046875 -1.707031 8.984375 -1.96875 C 8.972656 -2 8.9375 -2.023438 8.875 -2.046875 C 8.820312 -2.078125 8.753906 -2.097656 8.671875 -2.109375 C 8.585938 -2.117188 8.5 -2.125 8.40625 -2.125 C 8.3125 -2.132812 8.226562 -2.140625 8.15625 -2.140625 C 7.90625 -2.140625 7.703125 -2.132812 7.546875 -2.125 C 7.398438 -2.125 7.265625 -2.125 7.140625 -2.125 C 7.023438 -2.125 6.914062 -2.117188 6.8125 -2.109375 C 6.707031 -2.109375 6.578125 -2.109375 6.421875 -2.109375 C 6.234375 -2.109375 6.035156 -2.109375 5.828125 -2.109375 C 5.628906 -2.117188 5.453125 -2.125 5.296875 -2.125 L 4.734375 -2.15625 C 4.566406 -1.6875 4.394531 -1.242188 4.21875 -0.828125 C 4.050781 -0.421875 3.875 0 3.6875 0.4375 C 3.664062 0.488281 3.628906 0.53125 3.578125 0.5625 C 3.535156 0.59375 3.488281 0.609375 3.4375 0.609375 C 3.394531 0.609375 3.375 0.609375 3.375 0.609375 C 2.738281 0.378906 2.207031 0.15625 1.78125 -0.0625 C 1.351562 -0.289062 0.976562 -0.507812 0.65625 -0.71875 Z M 7.234375 -9.5 C 7.078125 -8.914062 6.921875 -8.382812 6.765625 -7.90625 C 6.617188 -7.4375 6.476562 -7.019531 6.34375 -6.65625 C 6.21875 -6.289062 6.109375 -5.984375 6.015625 -5.734375 C 5.929688 -5.484375 5.867188 -5.289062 5.828125 -5.15625 L 5.828125 -5.0625 C 5.828125 -5.03125 5.828125 -5.003906 5.828125 -4.984375 L 8.171875 -4.984375 C 8.097656 -5.304688 8.019531 -5.628906 7.9375 -5.953125 C 7.851562 -6.285156 7.769531 -6.628906 7.6875 -6.984375 C 7.613281 -7.335938 7.535156 -7.71875 7.453125 -8.125 C 7.378906 -8.539062 7.304688 -9 7.234375 -9.5 Z M 7.234375 -9.5 "/></g></g></g><g fill="#ffffff" fill-opacity="1"><g transform="translate(220.553778, 370.195816)"><g><path d="M 6.546875 -14 C 6.535156 -13.84375 6.519531 -13.644531 6.5 -13.40625 C 6.476562 -13.175781 6.457031 -12.929688 6.4375 -12.671875 C 6.414062 -12.421875 6.390625 -12.160156 6.359375 -11.890625 C 6.328125 -11.628906 6.300781 -11.390625 6.28125 -11.171875 C 6.257812 -10.953125 6.242188 -10.757812 6.234375 -10.59375 C 6.222656 -10.4375 6.21875 -10.335938 6.21875 -10.296875 C 6.1875 -9.890625 6.15625 -9.515625 6.125 -9.171875 C 6.09375 -8.828125 6.0625 -8.484375 6.03125 -8.140625 C 6 -7.804688 5.960938 -7.457031 5.921875 -7.09375 C 5.890625 -6.726562 5.851562 -6.328125 5.8125 -5.890625 C 5.78125 -5.460938 5.738281 -4.976562 5.6875 -4.4375 C 5.632812 -3.90625 5.582031 -3.296875 5.53125 -2.609375 L 9.578125 -3.015625 C 9.765625 -3.035156 9.914062 -3.046875 10.03125 -3.046875 C 10.175781 -3.046875 10.265625 -3.019531 10.296875 -2.96875 C 10.335938 -2.925781 10.359375 -2.859375 10.359375 -2.765625 C 10.359375 -2.753906 10.351562 -2.734375 10.34375 -2.703125 C 10.332031 -2.679688 10.316406 -2.640625 10.296875 -2.578125 C 10.273438 -2.515625 10.242188 -2.421875 10.203125 -2.296875 C 10.160156 -2.171875 10.101562 -2 10.03125 -1.78125 L 9.8125 -1.140625 C 9.738281 -0.929688 9.671875 -0.742188 9.609375 -0.578125 C 9.546875 -0.410156 9.46875 -0.265625 9.375 -0.140625 C 9.289062 -0.015625 9.179688 0.078125 9.046875 0.140625 C 8.910156 0.210938 8.734375 0.257812 8.515625 0.28125 C 8.378906 0.289062 8.191406 0.300781 7.953125 0.3125 C 7.722656 0.320312 7.453125 0.332031 7.140625 0.34375 C 6.835938 0.351562 6.507812 0.363281 6.15625 0.375 C 5.800781 0.394531 5.4375 0.414062 5.0625 0.4375 C 4.695312 0.445312 4.328125 0.453125 3.953125 0.453125 C 3.585938 0.453125 3.238281 0.457031 2.90625 0.46875 C 2.570312 0.476562 2.265625 0.484375 1.984375 0.484375 C 1.710938 0.492188 1.484375 0.503906 1.296875 0.515625 C 1.128906 0.515625 1.007812 0.5 0.9375 0.46875 C 0.863281 0.445312 0.828125 0.40625 0.828125 0.34375 C 0.828125 0.269531 0.847656 0.164062 0.890625 0.03125 C 0.929688 -0.101562 0.988281 -0.253906 1.0625 -0.421875 C 1.132812 -0.585938 1.210938 -0.757812 1.296875 -0.9375 C 1.390625 -1.113281 1.476562 -1.285156 1.5625 -1.453125 L 1.828125 -4.9375 C 1.878906 -5.53125 1.929688 -6.132812 1.984375 -6.75 C 2.035156 -7.363281 2.082031 -7.957031 2.125 -8.53125 L 2.28125 -11.109375 C 2.320312 -11.722656 2.347656 -12.164062 2.359375 -12.4375 C 2.378906 -12.71875 2.390625 -12.875 2.390625 -12.90625 C 2.398438 -13.019531 2.40625 -13.113281 2.40625 -13.1875 C 2.414062 -13.269531 2.425781 -13.335938 2.4375 -13.390625 C 2.457031 -13.441406 2.484375 -13.476562 2.515625 -13.5 C 2.546875 -13.53125 2.597656 -13.550781 2.671875 -13.5625 L 6.09375 -14.375 C 6.164062 -14.40625 6.253906 -14.421875 6.359375 -14.421875 C 6.429688 -14.421875 6.476562 -14.394531 6.5 -14.34375 C 6.53125 -14.300781 6.546875 -14.222656 6.546875 -14.109375 C 6.546875 -14.097656 6.546875 -14.082031 6.546875 -14.0625 C 6.546875 -14.039062 6.546875 -14.019531 6.546875 -14 Z M 6.546875 -14 "/></g></g></g></svg>