<svg xmlns="http://www.w3.org/2000/svg" xmlns:xlink="http://www.w3.org/1999/xlink" width="500" zoomAndPan="magnify" viewBox="0 0 375 374.999991" height="500" preserveAspectRatio="xMidYMid meet" version="1.0"><g fill="#ffde59" fill-opacity="1"><g transform="translate(161.092801, 232.499985)"><g><path d="M 20.289062 -19.925781 L 20.289062 -124.261719 L 46.554688 -124.261719 C 67.023438 -124.261719 82.417969 -118.464844 82.417969 -94.734375 C 82.417969 -70.464844 65.210938 -68.652344 48.003906 -59.59375 C 40.03125 -55.429688 32.96875 -50.175781 32.425781 -42.386719 C 38.039062 -56.335938 57.785156 -59.234375 71.914062 -63.035156 C 88.394531 -67.382812 102.34375 -74.449219 102.34375 -94.734375 C 102.34375 -116.472656 84.230469 -126.796875 64.304688 -126.796875 L 0 -126.796875 C 0 -126.796875 1.628906 -117.558594 1.628906 -106.871094 L 1.628906 -19.925781 C 1.628906 -9.238281 0 0 0 0 L 22.097656 0 C 22.097656 0 20.289062 -9.238281 20.289062 -19.925781 Z M 20.289062 -19.925781 "/></g></g></g><g clip-path="url(#id1)"><path fill="#000000" d="M 37.542969 187.496094 L 326.957031 187.496094 L 326.957031 212.246094 L 37.542969 212.246094 L 37.542969 187.496094 " fill-opacity="1" fill-rule="nonzero"/></g><g fill="#ffde59" fill-opacity="1"><g transform="translate(161.89555, 207.183781)"><g><path d="M 11.3125 -3.34375 L 4.09375 -3.34375 L 2.65625 0 L -0.109375 0 L 6.40625 -14.453125 L 9.046875 -14.453125 L 15.5625 0 L 12.75 0 Z M 10.421875 -5.453125 L 7.703125 -11.765625 L 5 -5.453125 Z M 10.421875 -5.453125 "/></g></g></g><g fill="#ffde59" fill-opacity="1"><g transform="translate(177.352466, 207.183781)"><g><path d="M 11.3125 -3.34375 L 4.09375 -3.34375 L 2.65625 0 L -0.109375 0 L 6.40625 -14.453125 L 9.046875 -14.453125 L 15.5625 0 L 12.75 0 Z M 10.421875 -5.453125 L 7.703125 -11.765625 L 5 -5.453125 Z M 10.421875 -5.453125 "/></g></g></g><g fill="#ffde59" fill-opacity="1"><g transform="translate(192.809381, 207.183781)"><g><path d="M 11.390625 0 L 8.4375 -4.234375 C 8.3125 -4.210938 8.128906 -4.203125 7.890625 -4.203125 L 4.625 -4.203125 L 4.625 0 L 1.9375 0 L 1.9375 -14.453125 L 7.890625 -14.453125 C 9.140625 -14.453125 10.226562 -14.242188 11.15625 -13.828125 C 12.082031 -13.410156 12.789062 -12.816406 13.28125 -12.046875 C 13.78125 -11.273438 14.03125 -10.363281 14.03125 -9.3125 C 14.03125 -8.21875 13.765625 -7.28125 13.234375 -6.5 C 12.710938 -5.71875 11.953125 -5.132812 10.953125 -4.75 L 14.28125 0 Z M 11.328125 -9.3125 C 11.328125 -10.226562 11.023438 -10.929688 10.421875 -11.421875 C 9.816406 -11.921875 8.929688 -12.171875 7.765625 -12.171875 L 4.625 -12.171875 L 4.625 -6.421875 L 7.765625 -6.421875 C 8.929688 -6.421875 9.816406 -6.671875 10.421875 -7.171875 C 11.023438 -7.671875 11.328125 -8.382812 11.328125 -9.3125 Z M 11.328125 -9.3125 "/></g></g></g><g fill="#ffde59" fill-opacity="1"><g transform="translate(207.894833, 207.183781)"><g><path d="M 4.875 -12.171875 L 0.078125 -12.171875 L 0.078125 -14.453125 L 12.34375 -14.453125 L 12.34375 -12.171875 L 7.546875 -12.171875 L 7.546875 0 L 4.875 0 Z M 4.875 -12.171875 "/></g></g></g><g fill="#ffde59" fill-opacity="1"><g transform="translate(220.318149, 207.183781)"><g><path d="M 14.78125 -14.453125 L 14.78125 0 L 12.09375 0 L 12.09375 -6.1875 L 4.625 -6.1875 L 4.625 0 L 1.9375 0 L 1.9375 -14.453125 L 4.625 -14.453125 L 4.625 -8.484375 L 12.09375 -8.484375 L 12.09375 -14.453125 Z M 14.78125 -14.453125 "/></g></g></g><g fill="#ffde59" fill-opacity="1"><g transform="translate(187.499992, 229.432895)"><g><path d="M 8.734375 0 L 1.734375 0 L 1.734375 -12.578125 L 8.734375 -12.578125 L 8.734375 -11.265625 L 3.1875 -11.265625 L 3.1875 -7.21875 L 8.40625 -7.21875 L 8.40625 -5.9375 L 3.1875 -5.9375 L 3.1875 -1.3125 L 8.734375 -1.3125 Z M 8.734375 0 "/></g></g></g><g fill="#ffde59" fill-opacity="1"><g transform="translate(197.289142, 229.432895)"><g><path d="M 3.578125 0 L 0 -9.421875 L 1.53125 -9.421875 L 3.5625 -3.828125 C 4.019531 -2.523438 4.289062 -1.679688 4.375 -1.296875 L 4.4375 -1.296875 C 4.5 -1.597656 4.695312 -2.222656 5.03125 -3.171875 C 5.363281 -4.128906 6.117188 -6.210938 7.296875 -9.421875 L 8.828125 -9.421875 L 5.25 0 Z M 3.578125 0 "/></g></g></g><g fill="#ffde59" fill-opacity="1"><g transform="translate(206.107111, 229.432895)"><g><path d="M 5.5 0.171875 C 4.101562 0.171875 3 -0.25 2.1875 -1.09375 C 1.382812 -1.945312 0.984375 -3.128906 0.984375 -4.640625 C 0.984375 -6.148438 1.359375 -7.351562 2.109375 -8.25 C 2.859375 -9.144531 3.863281 -9.59375 5.125 -9.59375 C 6.300781 -9.59375 7.234375 -9.203125 7.921875 -8.421875 C 8.609375 -7.648438 8.953125 -6.628906 8.953125 -5.359375 L 8.953125 -4.453125 L 2.46875 -4.453125 C 2.5 -3.347656 2.773438 -2.507812 3.296875 -1.9375 C 3.828125 -1.363281 4.578125 -1.078125 5.546875 -1.078125 C 6.554688 -1.078125 7.5625 -1.289062 8.5625 -1.71875 L 8.5625 -0.4375 C 8.050781 -0.21875 7.570312 -0.0625 7.125 0.03125 C 6.675781 0.125 6.132812 0.171875 5.5 0.171875 Z M 5.109375 -8.40625 C 4.347656 -8.40625 3.742188 -8.15625 3.296875 -7.65625 C 2.847656 -7.164062 2.582031 -6.484375 2.5 -5.609375 L 7.421875 -5.609375 C 7.421875 -6.515625 7.21875 -7.207031 6.8125 -7.6875 C 6.414062 -8.164062 5.847656 -8.40625 5.109375 -8.40625 Z M 5.109375 -8.40625 "/></g></g></g><g fill="#ffde59" fill-opacity="1"><g transform="translate(215.982206, 229.432895)"><g><path d="M 5.8125 -9.59375 C 6.226562 -9.59375 6.601562 -9.5625 6.9375 -9.5 L 6.734375 -8.171875 C 6.347656 -8.253906 6.003906 -8.296875 5.703125 -8.296875 C 4.941406 -8.296875 4.289062 -7.984375 3.75 -7.359375 C 3.207031 -6.742188 2.9375 -5.976562 2.9375 -5.0625 L 2.9375 0 L 1.515625 0 L 1.515625 -9.421875 L 2.6875 -9.421875 L 2.859375 -7.671875 L 2.921875 -7.671875 C 3.273438 -8.285156 3.695312 -8.757812 4.1875 -9.09375 C 4.675781 -9.425781 5.21875 -9.59375 5.8125 -9.59375 Z M 5.8125 -9.59375 "/></g></g></g><g fill="#ffde59" fill-opacity="1"><g transform="translate(223.167219, 229.432895)"><g><path d="M 0.015625 -9.421875 L 1.546875 -9.421875 L 3.609375 -4.046875 C 4.066406 -2.816406 4.347656 -1.929688 4.453125 -1.390625 L 4.515625 -1.390625 C 4.597656 -1.679688 4.753906 -2.179688 4.984375 -2.890625 C 5.222656 -3.597656 6.003906 -5.773438 7.328125 -9.421875 L 8.859375 -9.421875 L 4.8125 1.3125 C 4.40625 2.363281 3.929688 3.113281 3.390625 3.5625 C 2.859375 4.007812 2.203125 4.234375 1.421875 4.234375 C 0.992188 4.234375 0.566406 4.179688 0.140625 4.078125 L 0.140625 2.9375 C 0.453125 3.007812 0.800781 3.046875 1.1875 3.046875 C 2.175781 3.046875 2.878906 2.492188 3.296875 1.390625 L 3.8125 0.046875 Z M 0.015625 -9.421875 "/></g></g></g><g fill="#ffde59" fill-opacity="1"><g transform="translate(232.036755, 229.432895)"><g><path d="M 4.5625 -1 C 4.8125 -1 5.050781 -1.019531 5.28125 -1.0625 C 5.519531 -1.101562 5.707031 -1.140625 5.84375 -1.171875 L 5.84375 -0.09375 C 5.6875 -0.0078125 5.457031 0.0507812 5.15625 0.09375 C 4.863281 0.144531 4.59375 0.171875 4.34375 0.171875 C 2.519531 0.171875 1.609375 -0.785156 1.609375 -2.703125 L 1.609375 -8.3125 L 0.265625 -8.3125 L 0.265625 -9 L 1.609375 -9.59375 L 2.21875 -11.609375 L 3.046875 -11.609375 L 3.046875 -9.421875 L 5.78125 -9.421875 L 5.78125 -8.3125 L 3.046875 -8.3125 L 3.046875 -2.765625 C 3.046875 -2.203125 3.179688 -1.765625 3.453125 -1.453125 C 3.722656 -1.148438 4.09375 -1 4.5625 -1 Z M 4.5625 -1 "/></g></g></g><g fill="#ffde59" fill-opacity="1"><g transform="translate(238.250588, 229.432895)"><g><path d="M 7.96875 0 L 7.96875 -6.09375 C 7.96875 -6.863281 7.789062 -7.4375 7.4375 -7.8125 C 7.082031 -8.195312 6.535156 -8.390625 5.796875 -8.390625 C 4.804688 -8.390625 4.082031 -8.117188 3.625 -7.578125 C 3.164062 -7.035156 2.9375 -6.148438 2.9375 -4.921875 L 2.9375 0 L 1.515625 0 L 1.515625 -13.375 L 2.9375 -13.375 L 2.9375 -9.328125 C 2.9375 -8.835938 2.914062 -8.429688 2.875 -8.109375 L 2.953125 -8.109375 C 3.234375 -8.566406 3.632812 -8.925781 4.15625 -9.1875 C 4.675781 -9.445312 5.269531 -9.578125 5.9375 -9.578125 C 7.082031 -9.578125 7.941406 -9.300781 8.515625 -8.75 C 9.097656 -8.207031 9.390625 -7.335938 9.390625 -6.140625 L 9.390625 0 Z M 7.96875 0 "/></g></g></g><g fill="#ffde59" fill-opacity="1"><g transform="translate(249.05389, 229.432895)"><g><path d="M 2.9375 0 L 1.515625 0 L 1.515625 -9.421875 L 2.9375 -9.421875 Z M 1.390625 -11.984375 C 1.390625 -12.304688 1.46875 -12.539062 1.625 -12.6875 C 1.789062 -12.84375 1.992188 -12.921875 2.234375 -12.921875 C 2.460938 -12.921875 2.660156 -12.84375 2.828125 -12.6875 C 2.992188 -12.53125 3.078125 -12.296875 3.078125 -11.984375 C 3.078125 -11.660156 2.992188 -11.414062 2.828125 -11.25 C 2.660156 -11.09375 2.460938 -11.015625 2.234375 -11.015625 C 1.992188 -11.015625 1.789062 -11.09375 1.625 -11.25 C 1.46875 -11.414062 1.390625 -11.660156 1.390625 -11.984375 Z M 1.390625 -11.984375 "/></g></g></g><g fill="#ffde59" fill-opacity="1"><g transform="translate(253.505847, 229.432895)"><g><path d="M 7.96875 0 L 7.96875 -6.09375 C 7.96875 -6.863281 7.789062 -7.4375 7.4375 -7.8125 C 7.082031 -8.195312 6.535156 -8.390625 5.796875 -8.390625 C 4.804688 -8.390625 4.082031 -8.117188 3.625 -7.578125 C 3.164062 -7.046875 2.9375 -6.164062 2.9375 -4.9375 L 2.9375 0 L 1.515625 0 L 1.515625 -9.421875 L 2.671875 -9.421875 L 2.90625 -8.140625 L 2.96875 -8.140625 C 3.257812 -8.597656 3.671875 -8.953125 4.203125 -9.203125 C 4.734375 -9.460938 5.320312 -9.59375 5.96875 -9.59375 C 7.101562 -9.59375 7.957031 -9.316406 8.53125 -8.765625 C 9.101562 -8.222656 9.390625 -7.347656 9.390625 -6.140625 L 9.390625 0 Z M 7.96875 0 "/></g></g></g><g fill="#ffde59" fill-opacity="1"><g transform="translate(264.309149, 229.432895)"><g><path d="M 9.21875 -9.421875 L 9.21875 -8.515625 L 7.484375 -8.3125 C 7.640625 -8.113281 7.78125 -7.851562 7.90625 -7.53125 C 8.03125 -7.207031 8.09375 -6.84375 8.09375 -6.4375 C 8.09375 -5.507812 7.773438 -4.769531 7.140625 -4.21875 C 6.515625 -3.664062 5.65625 -3.390625 4.5625 -3.390625 C 4.28125 -3.390625 4.015625 -3.414062 3.765625 -3.46875 C 3.160156 -3.144531 2.859375 -2.738281 2.859375 -2.25 C 2.859375 -1.988281 2.960938 -1.796875 3.171875 -1.671875 C 3.378906 -1.554688 3.742188 -1.5 4.265625 -1.5 L 5.9375 -1.5 C 6.957031 -1.5 7.738281 -1.28125 8.28125 -0.84375 C 8.832031 -0.414062 9.109375 0.203125 9.109375 1.015625 C 9.109375 2.066406 8.6875 2.863281 7.84375 3.40625 C 7.007812 3.957031 5.789062 4.234375 4.1875 4.234375 C 2.957031 4.234375 2.003906 4.003906 1.328125 3.546875 C 0.660156 3.085938 0.328125 2.4375 0.328125 1.59375 C 0.328125 1.019531 0.507812 0.523438 0.875 0.109375 C 1.25 -0.304688 1.769531 -0.585938 2.4375 -0.734375 C 2.195312 -0.847656 1.992188 -1.019531 1.828125 -1.25 C 1.660156 -1.476562 1.578125 -1.742188 1.578125 -2.046875 C 1.578125 -2.390625 1.664062 -2.691406 1.84375 -2.953125 C 2.03125 -3.210938 2.320312 -3.460938 2.71875 -3.703125 C 2.238281 -3.898438 1.84375 -4.238281 1.53125 -4.71875 C 1.226562 -5.195312 1.078125 -5.75 1.078125 -6.375 C 1.078125 -7.40625 1.382812 -8.195312 2 -8.75 C 2.625 -9.3125 3.503906 -9.59375 4.640625 -9.59375 C 5.128906 -9.59375 5.570312 -9.535156 5.96875 -9.421875 Z M 1.71875 1.578125 C 1.71875 2.085938 1.929688 2.472656 2.359375 2.734375 C 2.785156 3.003906 3.398438 3.140625 4.203125 3.140625 C 5.398438 3.140625 6.285156 2.957031 6.859375 2.59375 C 7.441406 2.238281 7.734375 1.753906 7.734375 1.140625 C 7.734375 0.628906 7.570312 0.273438 7.25 0.078125 C 6.9375 -0.117188 6.347656 -0.21875 5.484375 -0.21875 L 3.765625 -0.21875 C 3.117188 -0.21875 2.613281 -0.0625 2.25 0.25 C 1.894531 0.5625 1.71875 1.003906 1.71875 1.578125 Z M 2.484375 -6.40625 C 2.484375 -5.75 2.671875 -5.25 3.046875 -4.90625 C 3.421875 -4.570312 3.9375 -4.40625 4.59375 -4.40625 C 5.988281 -4.40625 6.6875 -5.082031 6.6875 -6.4375 C 6.6875 -7.851562 5.984375 -8.5625 4.578125 -8.5625 C 3.898438 -8.5625 3.378906 -8.378906 3.015625 -8.015625 C 2.660156 -7.648438 2.484375 -7.113281 2.484375 -6.40625 Z M 2.484375 -6.40625 "/></g></g></g><g fill="#ffde59" fill-opacity="1"><g transform="translate(273.949205, 229.432895)"><g/></g></g><g fill="#ffde59" fill-opacity="1"><g transform="translate(187.499992, 253.432894)"><g><path d="M 2.9375 0 L 1.515625 0 L 1.515625 -9.421875 L 2.9375 -9.421875 Z M 1.390625 -11.984375 C 1.390625 -12.304688 1.46875 -12.539062 1.625 -12.6875 C 1.789062 -12.84375 1.992188 -12.921875 2.234375 -12.921875 C 2.460938 -12.921875 2.660156 -12.84375 2.828125 -12.6875 C 2.992188 -12.53125 3.078125 -12.296875 3.078125 -11.984375 C 3.078125 -11.660156 2.992188 -11.414062 2.828125 -11.25 C 2.660156 -11.09375 2.460938 -11.015625 2.234375 -11.015625 C 1.992188 -11.015625 1.789062 -11.09375 1.625 -11.25 C 1.46875 -11.414062 1.390625 -11.660156 1.390625 -11.984375 Z M 1.390625 -11.984375 "/></g></g></g><g fill="#ffde59" fill-opacity="1"><g transform="translate(191.95195, 253.432894)"><g><path d="M 7.96875 0 L 7.96875 -6.09375 C 7.96875 -6.863281 7.789062 -7.4375 7.4375 -7.8125 C 7.082031 -8.195312 6.535156 -8.390625 5.796875 -8.390625 C 4.804688 -8.390625 4.082031 -8.117188 3.625 -7.578125 C 3.164062 -7.046875 2.9375 -6.164062 2.9375 -4.9375 L 2.9375 0 L 1.515625 0 L 1.515625 -9.421875 L 2.671875 -9.421875 L 2.90625 -8.140625 L 2.96875 -8.140625 C 3.257812 -8.597656 3.671875 -8.953125 4.203125 -9.203125 C 4.734375 -9.460938 5.320312 -9.59375 5.96875 -9.59375 C 7.101562 -9.59375 7.957031 -9.316406 8.53125 -8.765625 C 9.101562 -8.222656 9.390625 -7.347656 9.390625 -6.140625 L 9.390625 0 Z M 7.96875 0 "/></g></g></g><g fill="#ffde59" fill-opacity="1"><g transform="translate(202.755252, 253.432894)"><g/></g></g><g fill="#ffde59" fill-opacity="1"><g transform="translate(207.327532, 253.432894)"><g><path d="M 7.296875 0 L 3.03125 -11.140625 L 2.953125 -11.140625 C 3.035156 -10.253906 3.078125 -9.207031 3.078125 -8 L 3.078125 0 L 1.734375 0 L 1.734375 -12.578125 L 3.921875 -12.578125 L 7.90625 -2.203125 L 7.984375 -2.203125 L 12 -12.578125 L 14.171875 -12.578125 L 14.171875 0 L 12.71875 0 L 12.71875 -8.09375 C 12.71875 -9.03125 12.757812 -10.039062 12.84375 -11.125 L 12.765625 -11.125 L 8.46875 0 Z M 7.296875 0 "/></g></g></g><g fill="#ffde59" fill-opacity="1"><g transform="translate(223.218785, 253.432894)"><g><path d="M 9.640625 -4.71875 C 9.640625 -3.1875 9.253906 -1.988281 8.484375 -1.125 C 7.710938 -0.257812 6.644531 0.171875 5.28125 0.171875 C 4.4375 0.171875 3.6875 -0.0234375 3.03125 -0.421875 C 2.382812 -0.816406 1.878906 -1.382812 1.515625 -2.125 C 1.160156 -2.863281 0.984375 -3.726562 0.984375 -4.71875 C 0.984375 -6.257812 1.367188 -7.457031 2.140625 -8.3125 C 2.910156 -9.164062 3.976562 -9.59375 5.34375 -9.59375 C 6.65625 -9.59375 7.695312 -9.15625 8.46875 -8.28125 C 9.25 -7.40625 9.640625 -6.21875 9.640625 -4.71875 Z M 2.46875 -4.71875 C 2.46875 -3.519531 2.707031 -2.601562 3.1875 -1.96875 C 3.664062 -1.332031 4.375 -1.015625 5.3125 -1.015625 C 6.25 -1.015625 6.957031 -1.328125 7.4375 -1.953125 C 7.925781 -2.585938 8.171875 -3.507812 8.171875 -4.71875 C 8.171875 -5.914062 7.925781 -6.828125 7.4375 -7.453125 C 6.957031 -8.078125 6.242188 -8.390625 5.296875 -8.390625 C 4.359375 -8.390625 3.648438 -8.082031 3.171875 -7.46875 C 2.703125 -6.851562 2.46875 -5.9375 2.46875 -4.71875 Z M 2.46875 -4.71875 "/></g></g></g><g fill="#ffde59" fill-opacity="1"><g transform="translate(233.850197, 253.432894)"><g><path d="M 7.921875 -1.265625 L 7.84375 -1.265625 C 7.1875 -0.304688 6.203125 0.171875 4.890625 0.171875 C 3.660156 0.171875 2.703125 -0.25 2.015625 -1.09375 C 1.328125 -1.9375 0.984375 -3.132812 0.984375 -4.6875 C 0.984375 -6.238281 1.328125 -7.441406 2.015625 -8.296875 C 2.703125 -9.160156 3.660156 -9.59375 4.890625 -9.59375 C 6.171875 -9.59375 7.148438 -9.128906 7.828125 -8.203125 L 7.9375 -8.203125 L 7.84375 -9.546875 L 7.84375 -13.375 L 9.28125 -13.375 L 9.28125 0 L 8.109375 0 Z M 5.078125 -1.015625 C 6.046875 -1.015625 6.75 -1.28125 7.1875 -1.8125 C 7.625 -2.34375 7.84375 -3.203125 7.84375 -4.390625 L 7.84375 -4.6875 C 7.84375 -6.019531 7.617188 -6.972656 7.171875 -7.546875 C 6.734375 -8.117188 6.03125 -8.40625 5.0625 -8.40625 C 4.21875 -8.40625 3.570312 -8.078125 3.125 -7.421875 C 2.6875 -6.773438 2.46875 -5.859375 2.46875 -4.671875 C 2.46875 -3.460938 2.6875 -2.550781 3.125 -1.9375 C 3.570312 -1.320312 4.222656 -1.015625 5.078125 -1.015625 Z M 5.078125 -1.015625 "/></g></g></g><g fill="#ffde59" fill-opacity="1"><g transform="translate(244.63631, 253.432894)"><g><path d="M 5.5 0.171875 C 4.101562 0.171875 3 -0.25 2.1875 -1.09375 C 1.382812 -1.945312 0.984375 -3.128906 0.984375 -4.640625 C 0.984375 -6.148438 1.359375 -7.351562 2.109375 -8.25 C 2.859375 -9.144531 3.863281 -9.59375 5.125 -9.59375 C 6.300781 -9.59375 7.234375 -9.203125 7.921875 -8.421875 C 8.609375 -7.648438 8.953125 -6.628906 8.953125 -5.359375 L 8.953125 -4.453125 L 2.46875 -4.453125 C 2.5 -3.347656 2.773438 -2.507812 3.296875 -1.9375 C 3.828125 -1.363281 4.578125 -1.078125 5.546875 -1.078125 C 6.554688 -1.078125 7.5625 -1.289062 8.5625 -1.71875 L 8.5625 -0.4375 C 8.050781 -0.21875 7.570312 -0.0625 7.125 0.03125 C 6.675781 0.125 6.132812 0.171875 5.5 0.171875 Z M 5.109375 -8.40625 C 4.347656 -8.40625 3.742188 -8.15625 3.296875 -7.65625 C 2.847656 -7.164062 2.582031 -6.484375 2.5 -5.609375 L 7.421875 -5.609375 C 7.421875 -6.515625 7.21875 -7.207031 6.8125 -7.6875 C 6.414062 -8.164062 5.847656 -8.40625 5.109375 -8.40625 Z M 5.109375 -8.40625 "/></g></g></g><g fill="#ffde59" fill-opacity="1"><g transform="translate(254.511405, 253.432894)"><g><path d="M 5.8125 -9.59375 C 6.226562 -9.59375 6.601562 -9.5625 6.9375 -9.5 L 6.734375 -8.171875 C 6.347656 -8.253906 6.003906 -8.296875 5.703125 -8.296875 C 4.941406 -8.296875 4.289062 -7.984375 3.75 -7.359375 C 3.207031 -6.742188 2.9375 -5.976562 2.9375 -5.0625 L 2.9375 0 L 1.515625 0 L 1.515625 -9.421875 L 2.6875 -9.421875 L 2.859375 -7.671875 L 2.921875 -7.671875 C 3.273438 -8.285156 3.695312 -8.757812 4.1875 -9.09375 C 4.675781 -9.425781 5.21875 -9.59375 5.8125 -9.59375 Z M 5.8125 -9.59375 "/></g></g></g><g fill="#ffde59" fill-opacity="1"><g transform="translate(261.696417, 253.432894)"><g><path d="M 7.3125 0 L 7.03125 -1.34375 L 6.953125 -1.34375 C 6.484375 -0.75 6.015625 -0.347656 5.546875 -0.140625 C 5.078125 0.0664062 4.492188 0.171875 3.796875 0.171875 C 2.867188 0.171875 2.140625 -0.0664062 1.609375 -0.546875 C 1.078125 -1.023438 0.8125 -1.710938 0.8125 -2.609375 C 0.8125 -4.503906 2.332031 -5.5 5.375 -5.59375 L 6.96875 -5.65625 L 6.96875 -6.234375 C 6.96875 -6.972656 6.804688 -7.519531 6.484375 -7.875 C 6.171875 -8.226562 5.664062 -8.40625 4.96875 -8.40625 C 4.1875 -8.40625 3.296875 -8.160156 2.296875 -7.671875 L 1.859375 -8.765625 C 2.328125 -9.023438 2.835938 -9.222656 3.390625 -9.359375 C 3.941406 -9.503906 4.5 -9.578125 5.0625 -9.578125 C 6.175781 -9.578125 7.003906 -9.328125 7.546875 -8.828125 C 8.085938 -8.328125 8.359375 -7.53125 8.359375 -6.4375 L 8.359375 0 Z M 4.078125 -1 C 4.972656 -1 5.671875 -1.242188 6.171875 -1.734375 C 6.679688 -2.222656 6.9375 -2.90625 6.9375 -3.78125 L 6.9375 -4.640625 L 5.515625 -4.578125 C 4.378906 -4.535156 3.554688 -4.359375 3.046875 -4.046875 C 2.546875 -3.734375 2.296875 -3.25 2.296875 -2.59375 C 2.296875 -2.070312 2.453125 -1.675781 2.765625 -1.40625 C 3.078125 -1.132812 3.515625 -1 4.078125 -1 Z M 4.078125 -1 "/></g></g></g><g fill="#ffde59" fill-opacity="1"><g transform="translate(271.485567, 253.432894)"><g><path d="M 4.5625 -1 C 4.8125 -1 5.050781 -1.019531 5.28125 -1.0625 C 5.519531 -1.101562 5.707031 -1.140625 5.84375 -1.171875 L 5.84375 -0.09375 C 5.6875 -0.0078125 5.457031 0.0507812 5.15625 0.09375 C 4.863281 0.144531 4.59375 0.171875 4.34375 0.171875 C 2.519531 0.171875 1.609375 -0.785156 1.609375 -2.703125 L 1.609375 -8.3125 L 0.265625 -8.3125 L 0.265625 -9 L 1.609375 -9.59375 L 2.21875 -11.609375 L 3.046875 -11.609375 L 3.046875 -9.421875 L 5.78125 -9.421875 L 5.78125 -8.3125 L 3.046875 -8.3125 L 3.046875 -2.765625 C 3.046875 -2.203125 3.179688 -1.765625 3.453125 -1.453125 C 3.722656 -1.148438 4.09375 -1 4.5625 -1 Z M 4.5625 -1 "/></g></g></g><g fill="#ffde59" fill-opacity="1"><g transform="translate(277.699399, 253.432894)"><g><path d="M 2.9375 0 L 1.515625 0 L 1.515625 -9.421875 L 2.9375 -9.421875 Z M 1.390625 -11.984375 C 1.390625 -12.304688 1.46875 -12.539062 1.625 -12.6875 C 1.789062 -12.84375 1.992188 -12.921875 2.234375 -12.921875 C 2.460938 -12.921875 2.660156 -12.84375 2.828125 -12.6875 C 2.992188 -12.53125 3.078125 -12.296875 3.078125 -11.984375 C 3.078125 -11.660156 2.992188 -11.414062 2.828125 -11.25 C 2.660156 -11.09375 2.460938 -11.015625 2.234375 -11.015625 C 1.992188 -11.015625 1.789062 -11.09375 1.625 -11.25 C 1.46875 -11.414062 1.390625 -11.660156 1.390625 -11.984375 Z M 1.390625 -11.984375 "/></g></g></g><g fill="#ffde59" fill-opacity="1"><g transform="translate(282.151357, 253.432894)"><g><path d="M 9.640625 -4.71875 C 9.640625 -3.1875 9.253906 -1.988281 8.484375 -1.125 C 7.710938 -0.257812 6.644531 0.171875 5.28125 0.171875 C 4.4375 0.171875 3.6875 -0.0234375 3.03125 -0.421875 C 2.382812 -0.816406 1.878906 -1.382812 1.515625 -2.125 C 1.160156 -2.863281 0.984375 -3.726562 0.984375 -4.71875 C 0.984375 -6.257812 1.367188 -7.457031 2.140625 -8.3125 C 2.910156 -9.164062 3.976562 -9.59375 5.34375 -9.59375 C 6.65625 -9.59375 7.695312 -9.15625 8.46875 -8.28125 C 9.25 -7.40625 9.640625 -6.21875 9.640625 -4.71875 Z M 2.46875 -4.71875 C 2.46875 -3.519531 2.707031 -2.601562 3.1875 -1.96875 C 3.664062 -1.332031 4.375 -1.015625 5.3125 -1.015625 C 6.25 -1.015625 6.957031 -1.328125 7.4375 -1.953125 C 7.925781 -2.585938 8.171875 -3.507812 8.171875 -4.71875 C 8.171875 -5.914062 7.925781 -6.828125 7.4375 -7.453125 C 6.957031 -8.078125 6.242188 -8.390625 5.296875 -8.390625 C 4.359375 -8.390625 3.648438 -8.082031 3.171875 -7.46875 C 2.703125 -6.851562 2.46875 -5.9375 2.46875 -4.71875 Z M 2.46875 -4.71875 "/></g></g></g><g fill="#ffde59" fill-opacity="1"><g transform="translate(292.782769, 253.432894)"><g><path d="M 7.96875 0 L 7.96875 -6.09375 C 7.96875 -6.863281 7.789062 -7.4375 7.4375 -7.8125 C 7.082031 -8.195312 6.535156 -8.390625 5.796875 -8.390625 C 4.804688 -8.390625 4.082031 -8.117188 3.625 -7.578125 C 3.164062 -7.046875 2.9375 -6.164062 2.9375 -4.9375 L 2.9375 0 L 1.515625 0 L 1.515625 -9.421875 L 2.671875 -9.421875 L 2.90625 -8.140625 L 2.96875 -8.140625 C 3.257812 -8.597656 3.671875 -8.953125 4.203125 -9.203125 C 4.734375 -9.460938 5.320312 -9.59375 5.96875 -9.59375 C 7.101562 -9.59375 7.957031 -9.316406 8.53125 -8.765625 C 9.101562 -8.222656 9.390625 -7.347656 9.390625 -6.140625 L 9.390625 0 Z M 7.96875 0 "/></g></g></g></svg>