<svg xmlns="http://www.w3.org/2000/svg" xmlns:xlink="http://www.w3.org/1999/xlink" width="500" zoomAndPan="magnify" viewBox="0 0 375 374.999991" height="500" preserveAspectRatio="xMidYMid meet" version="1.0"><defs><clipPath id="id1"><path d="M 135 24.53125 L 239 24.53125 L 239 184 L 135 184 Z M 135 24.53125 " clip-rule="nonzero"/></clipPath><clipPath id="id2"><path d="M 31.050781 158 L 343.800781 158 L 343.800781 350.78125 L 31.050781 350.78125 Z M 31.050781 158 " clip-rule="nonzero"/></clipPath></defs><g clip-path="url(#id1)"><path fill="#1ebfe8" d="M 187.40625 183.445312 L 238.878906 131.882812 L 219.535156 91.527344 L 187.40625 24.53125 L 135.953125 131.882812 L 137.246094 133.171875 Z M 187.40625 183.445312 " fill-opacity="1" fill-rule="nonzero"/></g><g clip-path="url(#id2)"><path fill="#0f1e73" d="M 251.726562 158.742188 L 187.40625 223.179688 L 123.117188 158.753906 L 31.097656 350.78125 L 89.394531 350.78125 C 102.203125 325.859375 124.191406 306.457031 150.878906 297.007812 C 150.878906 297.019531 150.878906 297.019531 150.878906 297.019531 C 162.40625 292.925781 174.792969 290.707031 187.695312 290.707031 C 230.519531 290.707031 267.65625 315.097656 286 350.78125 L 343.757812 350.78125 Z M 251.726562 158.742188 " fill-opacity="1" fill-rule="nonzero"/></g></svg>